<svg xmlns="http://www.w3.org/2000/svg" width="780" height="490" viewBox="0 0 780 490">
<title>Muscle map — front and back view</title>
<rect width="780" height="490" fill="#0E1117" rx="14"/>
<text x="270" y="38" text-anchor="middle" fill="#3A4055" font-size="9" font-family="system-ui,sans-serif" letter-spacing="4">FRONT</text>
<text x="510" y="38" text-anchor="middle" fill="#3A4055" font-size="9" font-family="system-ui,sans-serif" letter-spacing="4">BACK</text>
<text x="390" y="20" text-anchor="middle" fill="#2A3040" font-size="9" font-family="system-ui,sans-serif" letter-spacing="5">MUSCLE MAP</text>

<g transform="translate(170,55)"><path d="M 115.721 46.32 c 1.083 -0.489 1.818 0.13 1.95 1.193 c 0.409 3.296 -1.359 7.367 -3.246 10.069 c -0.61 0.876 -1.066 0.047 -1.309 -0.486 a 0.105 0.105 0 0 0 -0.202 0.044 c 0.006 2.296 0.279 4.699 -0.928 6.776 c -0.046 0.081 -1.213 1.276 -2.983 2.627 c -6.517 5.003 -11.489 4.451 -16.974 -0.22 c -1.308 -1.008 -1.637 -1.393 -2.432 -2.105 c -1.564 -1.401 -1.459 -4.801 -1.235 -6.884 c 0.014 -0.141 -0.129 -0.246 -0.258 -0.19 a 0.18 0.18 0 0 0 -0.099 0.11 c -0.157 0.467 -0.619 1.119 -1.124 0.409 c -1.713 -2.406 -4.425 -7.881 -3.091 -10.768 c 0.464 -1.002 1.031 -1.08 1.702 -0.235 a 50.512 50.512 0 0 1 1.044 6.434 a 0.282 0.282 0 0 0 0.431 0.213 c 0.771 -0.483 0.721 -5.229 0.727 -6.691 c 0.006 -1.251 0.309 -2.47 1.05 -3.619 c 1.204 -1.867 1.343 -3.18 1.539 -5.475 c 0.13 -1.528 1.199 -2.243 2.699 -2.268 c 1.765 -0.033 3.506 -0.019 5.249 -0.257 c 1.11 -0.152 2.044 -0.395 3.185 -0.207 c 1.851 0.304 3.713 0.453 5.586 0.448 c 1.273 -0.004 2.078 0.063 2.417 0.199 c 1.646 0.655 1.536 2.688 1.688 4.204 c 0.122 1.199 0.579 2.333 1.373 3.403 c 1.815 2.453 0.605 7.072 1.558 10.044 a 0.315 0.315 0 0 0 0.613 -0.064 c 0.245 -2.309 0.602 -4.544 1.072 -6.704 z z z z" fill="#252830" stroke="#363B45" stroke-width="0.5"/>
<path d="M 115.721 46.32 q -0.704 3.24 -1.072 6.704 a 0.315 0.315 0 0 1 -0.613 0.064 c -0.953 -2.972 0.257 -7.591 -1.558 -10.044 q -1.191 -1.605 -1.373 -3.403 c -0.152 -1.517 -0.041 -3.55 -1.688 -4.204 q -0.508 -0.204 -2.417 -0.199 -2.809 0.008 -5.586 -0.448 c -1.141 -0.188 -2.075 0.055 -3.185 0.207 -1.743 0.238 -3.483 0.224 -5.249 0.257 -1.5 0.025 -2.569 0.74 -2.699 2.268 -0.196 2.296 -0.334 3.608 -1.539 5.475 -0.74 1.149 -1.044 2.367 -1.05 3.619 -0.006 1.461 0.044 6.207 -0.727 6.691 a 0.282 0.282 0 0 1 -0.431 -0.213 q -0.315 -3.254 -1.044 -6.434 -0.409 -1.931 -0.525 -2.68 c -0.688 -4.403 0.036 -11.086 3.738 -14.13 2.594 -2.133 7.881 -3.213 11.152 -3.18 1.16 0.014 2.414 -0.083 3.503 0.061 3.818 0.503 8.749 1.61 10.89 5.227 2.489 4.202 2.729 9.707 1.472 14.362 z" fill="#252830" stroke="#363B45" stroke-width="0.5"/>
<path d="M 100.18 80.254 q -0.315 -0.378 -0.514 -0.942 -1.472 -4.185 -3.354 -8.218 c -0.655 -1.398 -0.296 -2.506 -2.188 -3.036 q -0.279 -0.077 0.006 -0.13 c 1.652 -0.298 4.213 0.251 5.892 0.552 q 0.655 0.116 1.329 -0.025 2.787 -0.588 5.649 -0.586 a 0.102 0.102 0 0 1 0.022 0.202 c -1.751 0.403 -1.506 1.558 -2.091 2.82 q -1.685 3.619 -3.039 7.373 -0.359 1.0 -0.801 1.881 a 0.55 0.55 0 0 1 -0.912 0.108 z M 97.793 87.036 q -0.964 -1.008 -1.63 -2.273 c -1.785 -3.398 -3.047 -7.022 -4.453 -10.71 -0.807 -2.116 -0.547 -5.37 -0.445 -7.624 q 0.008 -0.16 0.13 -0.058 c 2.503 2.041 3.13 4.823 4.329 7.63 1.492 3.483 4.254 9.202 2.517 12.961 a 0.276 0.273 35.5 0 1 -0.448 0.075 z M 95.517 87.293 c -1.138 -0.541 -3.53 -1.867 -4.163 -3.144 -1.185 -2.39 -0.743 -4.425 -0.63 -6.975 a 0.276 0.276 0 0 1 0.539 -0.077 c 1.185 3.431 2.901 6.74 4.34 10.113 q 0.064 0.152 -0.086 0.083 z M 102.97 86.936 c -1.597 -2.671 0.472 -8.61 1.704 -11.238 1.644 -3.503 2.268 -6.818 5.069 -9.365 a 0.135 0.135 0 0 1 0.227 0.097 c 0.077 2.398 0.232 5.356 -0.544 7.657 -1.453 4.304 -3.146 9.243 -5.917 12.878 a 0.326 0.326 0 0 1 -0.539 -0.03 z M 109.948 76.931 a 0.138 0.135 35.5 0 1 0.24 -0.039 c 0.555 0.746 0.448 3.204 0.445 4.18 -0.011 3.431 -2.265 4.82 -4.945 6.238 a 0.097 0.097 0 0 1 -0.133 -0.127 c 1.522 -3.32 3.273 -6.757 4.392 -10.251 z" fill="#252830" stroke="#363B45" stroke-width="0.5"/>
<path d="M 121.188 122.751 c -0.577 -1.113 -0.036 -1.887 1.003 -2.434 2.823 -1.481 4.638 -3.039 6.693 -4.992 a 0.472 0.472 0 0 1 0.798 0.309 c 0.091 1.309 -0.224 3.975 -1.528 4.757 -1.293 0.779 -5.177 2.768 -6.738 2.525 q -0.157 -0.025 -0.229 -0.166 z M 126.351 128.931 c -1.028 -0.282 -3.646 -2.843 -4.558 -4.003 a 0.144 0.144 0 0 1 0.066 -0.224 q 3.022 -1.036 5.887 -2.486 c 1.094 -0.555 1.74 -1.652 2.367 -2.646 q 0.105 -0.163 0.152 0.025 c 0.227 0.92 0.425 1.704 0.105 2.646 -0.704 2.055 -2.105 5.191 -3.773 6.633 a 0.265 0.265 0 0 1 -0.246 0.055 z M 118.351 134.591 c -0.279 -0.494 -0.227 -1.257 -0.196 -1.856 q 0.215 -4.166 0.133 -8.362 -0.003 -0.163 0.152 -0.11 0.475 0.163 0.834 0.453 3.199 2.588 5.199 4.682 c 1.066 1.119 -4.475 4.812 -5.403 5.381 a 0.517 0.514 59.6 0 1 -0.718 -0.188 z M 130.044 126.044 a 0.069 0.069 0 0 1 0.122 0.036 q 0.561 5.434 -2.707 9.729 -0.102 0.133 -0.166 -0.022 c -0.378 -0.909 -1.619 -4.456 -0.97 -5.224 q 1.74 -2.064 3.721 -4.519 z M 124.936 132.182 c 0.312 0.135 1.182 3.445 1.32 3.972 q 0.039 0.138 -0.064 0.243 -0.356 0.373 -0.732 0.666 -2.884 2.243 -6.011 4.135 -0.412 0.249 -0.804 0.367 a 0.224 0.224 0 0 1 -0.29 -0.196 q -0.202 -2.381 0.185 -4.738 0.022 -0.13 0.122 -0.221 c 0.481 -0.442 6.066 -4.345 6.171 -4.285 a 0.16 0.008 31 0 0 0.102 0.055 z M 118.293 143.409 q 0.03 -0.099 0.119 -0.155 4.227 -2.669 7.964 -5.992 a 0.119 0.116 -22.6 0 1 0.196 0.08 c 0.141 2.282 0.622 5.157 -1.232 7.017 q -3.26 3.271 -6.914 6.102 -0.119 0.094 -0.135 -0.055 c -0.207 -1.884 -0.544 -5.227 0.003 -6.997 z M 126.116 144.903 a 0.011 0.011 0 0 1 0.019 0.006 q 0.42 3.776 0.113 7.569 -0.011 0.13 -0.077 0.243 c -1.373 2.293 -5.036 5.42 -7.702 6.251 q -0.157 0.047 -0.16 -0.119 -0.014 -2.848 -0.075 -5.671 -0.028 -1.326 0.727 -1.959 c 2.359 -1.97 5.127 -4.039 7.155 -6.32 z M 115.715 181.522 q -0.309 -0.461 -0.119 -1.003 0.903 -2.591 1.116 -5.036 0.544 -6.301 0.989 -12.61 c 0.044 -0.641 0.199 -1.771 0.785 -2.13 q 4.135 -2.55 7.503 -6.058 0.113 -0.116 0.196 0.022 0.356 0.594 0.423 1.16 0.892 7.663 0.865 15.691 a 0.359 0.354 -24.5 0 1 -0.091 0.238 q -3.519 3.848 -7.058 7.666 c -1.326 1.428 -2.511 2.174 -4.345 2.199 q -0.169 0.003 -0.262 -0.138 z M 72.986 120.312 c -1.348 -0.865 -1.588 -3.345 -1.489 -4.796 q 0.008 -0.146 0.141 -0.207 0.497 -0.232 0.948 0.235 2.776 2.887 6.235 4.669 c 1.006 0.522 1.53 1.0 1.323 2.155 q -0.116 0.649 -0.779 0.517 -3.439 -0.688 -6.378 -2.572 z M 79.373 124.983 c -1.119 1.232 -2.867 3.144 -4.497 3.95 a 0.232 0.229 51.1 0 1 -0.249 -0.028 c -1.738 -1.428 -3.464 -5.24 -3.925 -6.931 q -0.251 -0.923 0.235 -2.434 0.033 -0.108 0.097 -0.014 c 0.666 1.008 1.268 2.138 2.395 2.696 q 2.812 1.395 5.876 2.489 a 0.169 0.169 0 0 1 0.069 0.271 z M 82.127 134.757 c -2.033 -1.169 -4.608 -3.141 -5.677 -4.854 q -0.088 -0.138 0.025 -0.254 2.409 -2.497 5.481 -4.936 0.403 -0.323 0.776 -0.461 a 0.122 0.122 0 0 1 0.163 0.119 c -0.077 2.785 -0.11 5.641 0.18 8.406 q 0.094 0.901 -0.188 1.699 a 0.525 0.525 0 0 1 -0.76 0.282 z M 71.091 126.017 l 3.779 4.594 a 0.514 0.503 22.9 0 1 0.11 0.262 c 0.163 1.492 -0.558 3.511 -1.05 4.851 q -0.083 0.232 -0.232 0.036 -3.273 -4.296 -2.699 -9.715 0.011 -0.124 0.091 -0.028 z M 75.052 136.483 a 0.423 0.42 -61.8 0 1 -0.135 -0.453 l 1.16 -3.751 a 0.271 0.271 0 0 1 0.417 -0.138 c 0.884 0.641 6.047 3.881 6.149 4.613 q 0.318 2.298 0.182 4.638 a 0.249 0.249 0 0 1 -0.37 0.202 q -3.934 -2.224 -7.403 -5.11 z M 82.693 150.448 c -2.077 -1.666 -4.461 -3.71 -6.693 -5.867 -1.914 -1.851 -1.657 -4.749 -1.348 -7.199 a 0.122 0.122 0 0 1 0.199 -0.077 q 3.677 3.282 7.848 5.906 0.119 0.075 0.166 0.207 c 0.644 1.793 0.262 5.075 -0.019 6.97 q -0.025 0.163 -0.152 0.061 z M 82.622 158.986 c -2.204 -1.008 -7.616 -4.381 -7.751 -7.238 q -0.157 -3.29 0.127 -6.713 a 0.099 0.099 0 0 1 0.185 -0.041 q 0.232 0.376 0.599 0.702 2.925 2.61 5.989 5.058 c 1.207 0.964 1.199 1.785 1.149 3.243 q -0.083 2.436 -0.116 4.873 -0.003 0.199 -0.182 0.116 z M 85.13 181.652 c -2.041 -0.036 -3.428 -1.141 -4.735 -2.594 q -3.276 -3.652 -6.608 -7.285 -0.091 -0.099 -0.091 -0.235 0.025 -6.403 0.5 -12.768 0.146 -1.97 0.688 -3.981 a 0.196 0.196 0 0 1 0.331 -0.083 q 3.188 3.331 7.133 5.829 0.928 0.586 1.0 1.428 0.569 6.539 1.066 13.083 c 0.16 2.105 0.638 3.691 1.224 5.751 q 0.13 0.459 -0.265 0.771 -0.108 0.086 -0.243 0.083 z" fill="#252830" stroke="#363B45" stroke-width="0.5"/>
<path d="M 56.961 142.044 c -1.494 -0.185 -1.809 -2.014 -1.296 -3.155 3.061 -6.782 6.309 -13.983 8.436 -20.859 0.378 -1.218 0.851 -2.373 1.091 -3.439 q 0.812 -3.624 1.599 -7.254 0.116 -0.547 0.503 -0.936 a 0.144 0.144 0 0 1 0.224 0.028 q 0.287 0.467 0.536 1.26 1.279 4.047 1.423 6.884 c 0.157 3.138 -1.412 6.782 -2.39 9.807 q -2.124 6.569 -5.594 12.539 c -0.677 1.169 -3.18 5.298 -4.533 5.127 z M 143.008 141.453 c -5.544 -6.11 -7.997 -14.29 -10.5 -21.831 -0.903 -2.727 -0.989 -5.298 -0.37 -8.116 0.356 -1.624 0.688 -3.599 1.55 -5.116 q 0.088 -0.157 0.199 -0.017 0.373 0.461 0.494 1.019 c 0.738 3.406 1.42 6.765 2.506 10.088 2.279 6.983 5.133 13.757 8.591 21.326 q 0.392 0.856 0.29 1.472 c -0.224 1.351 -1.508 2.555 -2.76 1.174 z" fill="#252830" stroke="#363B45" stroke-width="0.5"/>
<path d="M 27.895 206.036 c -2.494 -1.829 -4.359 -3.641 -3.674 -6.793 0.738 -3.395 4.146 -5.691 7.008 -7.24 2.144 -1.163 5.033 -0.464 7.224 0.268 1.972 0.66 3.069 1.702 3.066 3.829 q -0.011 5.113 -1.312 10.047 c -1.511 5.735 -9.525 1.931 -12.312 -0.11 z M 14.865 206.166 a 0.251 0.251 0 0 1 -0.204 -0.262 c 0.039 -0.688 -0.064 -1.751 0.622 -2.155 1.287 -0.749 3.141 -1.528 3.909 -2.845 q 1.746 -3.0 4.575 -5.608 0.351 -0.323 0.177 0.122 c -0.401 1.03 -0.79 1.992 -1.069 3.202 -0.762 3.287 -4.039 8.287 -8.008 7.547 z M 24.091 205.815 c 0.398 0.127 2.249 0.735 2.378 1.257 0.348 1.414 -1.221 2.359 -1.934 3.384 -2.135 3.066 -4.177 6.459 -6.699 9.193 a 0.337 0.337 0 0 1 -0.583 -0.238 c 0.03 -1.086 0.105 -1.961 0.671 -2.942 q 2.837 -4.892 5.334 -9.975 0.088 -0.18 0.588 -0.627 0.105 -0.097 0.243 -0.052 z M 29.865 209.425 a 0.597 0.597 0 0 1 0.296 0.793 q -2.898 6.229 -5.503 12.655 c -0.401 0.983 -1.207 1.423 -2.16 1.669 a 0.373 0.37 -8.1 0 1 -0.467 -0.348 c -0.03 -0.843 0.102 -1.622 0.436 -2.459 q 2.238 -5.602 4.185 -11.315 c 0.113 -0.331 0.171 -0.92 0.467 -1.34 a 0.334 0.334 0 0 1 0.251 -0.135 q 1.304 -0.058 2.494 0.481 z M 37.041 220.967 q -0.32 -0.47 -0.39 -1.03 -0.58 -4.715 -0.326 -9.472 0.008 -0.166 0.169 -0.207 l 1.914 -0.511 q 0.188 -0.052 0.18 0.144 -0.141 3.011 -0.235 5.997 c -0.077 2.37 0.028 3.494 -1.152 5.083 a 0.099 0.099 0 0 1 -0.16 -0.003 z M 29.87 225.041 a 0.409 0.409 0 0 1 -0.448 -0.406 c -0.006 -0.782 -0.039 -1.564 0.088 -2.356 q 0.801 -4.914 1.492 -9.848 0.146 -1.061 0.436 -2.088 a 0.182 0.182 0 0 1 0.21 -0.133 l 2.006 0.343 a 0.268 0.268 0 0 1 0.215 0.315 q -1.315 6.619 -2.514 12.779 -0.249 1.282 -1.486 1.395 z M 163.345 208.837 c -2.227 -0.809 -2.392 -2.696 -2.84 -4.713 q -0.89 -3.983 -0.856 -8.094 0.011 -1.122 0.403 -1.809 c 1.199 -2.091 5.017 -2.738 7.08 -2.859 2.417 -0.141 5.075 1.923 6.903 3.39 q 2.464 1.981 2.967 4.84 c 0.677 3.837 -3.345 6.467 -6.271 8.022 -1.92 1.019 -5.146 2.041 -7.387 1.224 z M 177.34 195.243 q 2.997 2.666 4.865 6.052 c 0.45 0.82 2.691 1.867 3.555 2.373 0.801 0.47 0.837 1.329 0.704 2.348 q -0.017 0.116 -0.133 0.135 c -2.254 0.365 -3.312 -0.533 -4.895 -1.997 -2.859 -2.646 -2.901 -5.616 -4.235 -8.812 q -0.149 -0.356 0.138 -0.099 z M 176.243 209.964 c -0.702 -0.945 -2.077 -1.666 -1.503 -3.069 q 0.05 -0.122 0.169 -0.174 l 2.047 -0.912 q 0.356 -0.16 0.566 0.171 0.92 1.445 1.572 2.773 1.89 3.851 4.064 7.55 c 0.373 0.633 1.182 2.807 0.622 3.345 a 0.337 0.337 0 0 1 -0.489 -0.022 c -2.605 -3.033 -4.655 -6.453 -7.047 -9.663 z M 178.959 224.497 c -1.105 0.066 -2.13 -0.793 -2.517 -1.762 q -2.564 -6.428 -5.453 -12.522 a 0.566 0.566 0 0 1 0.254 -0.749 q 1.243 -0.63 2.657 -0.47 a 0.301 0.296 83.8 0 1 0.246 0.202 q 2.072 6.37 4.577 12.569 0.497 1.232 0.414 2.552 a 0.193 0.193 0 0 1 -0.18 0.18 z M 164.688 210.271 a 0.232 0.232 0 0 1 0.171 0.224 c -0.003 1.343 0.262 9.751 -0.749 10.406 q -0.135 0.088 -0.227 -0.047 -0.942 -1.439 -0.97 -2.345 -0.124 -4.315 -0.32 -8.627 -0.008 -0.199 0.182 -0.144 l 1.912 0.533 z M 171.572 224.939 c -1.202 0.528 -1.635 -1.041 -1.796 -1.812 q -1.249 -6.052 -2.453 -12.141 a 0.39 0.39 0 0 1 0.315 -0.459 l 1.878 -0.326 a 0.254 0.254 0 0 1 0.293 0.21 q 0.771 4.508 1.406 9.091 c 0.235 1.704 0.608 3.384 0.497 5.235 q -0.008 0.144 -0.141 0.202 z" fill="#252830" stroke="#363B45" stroke-width="0.5"/>
<path d="M 77.42 178.84 c 3.218 2.967 6.127 5.812 8.569 9.475 4.37 6.552 7.61 13.735 9.395 21.431 0.37 1.599 -1.696 5.619 -3.486 5.586 q -0.144 -0.003 -0.199 -0.135 -0.185 -0.439 -0.334 -0.865 c -4.055 -11.522 -7.724 -22.019 -12.948 -32.323 -0.525 -1.033 -0.843 -2.025 -1.122 -3.094 a 0.075 0.075 0 0 1 0.124 -0.075 z M 91.613 248.155 q -0.047 0.157 -0.064 -0.006 c -0.616 -6.909 -2.34 -13.837 -3.936 -20.588 q -5.359 -22.68 -11.729 -45.218 -0.16 -0.575 0.091 -0.036 c 5.492 11.749 10.757 23.898 14.265 36.483 2.622 9.409 4.307 19.798 1.373 29.365 z M 92.392 218.003 c 0.431 -0.727 3.975 -5.63 4.475 -5.627 a 0.472 0.47 -89.2 0 1 0.47 0.486 q -0.309 9.635 -2.044 19.047 c -0.105 0.569 -0.39 1.18 -0.597 1.721 q -0.066 0.171 -0.094 -0.011 -1.017 -7.03 -2.331 -14.006 c -0.094 -0.494 -0.174 -1.105 0.122 -1.61 z M 109.246 215.304 c -1.575 0.367 -3.133 -3.279 -3.442 -4.381 q -0.169 -0.602 -0.006 -1.285 2.809 -11.779 9.685 -21.771 c 2.616 -3.804 5.202 -6.177 8.246 -8.994 q 0.152 -0.138 0.11 0.061 -0.309 1.575 -1.03 2.992 c -5.37 10.602 -9.199 21.878 -13.196 33.052 a 0.508 0.506 -86.4 0 1 -0.367 0.326 z M 125.318 182.041 q 0.185 -0.395 0.064 0.025 -7.384 25.898 -13.434 52.414 c -0.547 2.403 -1.011 4.945 -1.503 7.414 q -0.605 3.052 -0.768 6.196 a 0.041 0.041 0 0 1 -0.083 0.011 c -2.26 -6.762 -1.862 -14.359 -0.517 -21.232 3.058 -15.605 9.514 -30.503 16.24 -44.829 z M 104.395 212.34 c 0.412 0.232 0.486 0.412 0.735 0.735 q 1.702 2.221 3.378 4.456 c 0.519 0.696 0.544 1.155 0.381 2.058 q -1.262 6.97 -2.329 13.97 -0.03 0.196 -0.11 0.014 -0.522 -1.185 -0.702 -2.235 -1.539 -8.917 -1.928 -17.959 -0.025 -0.552 0.224 -0.95 a 0.262 0.26 30.8 0 1 0.351 -0.088 z" fill="#252830" stroke="#363B45" stroke-width="0.5"/>
<path d="M 82.235 278.555 c -2.008 2.014 -4.514 0.945 -5.425 -1.431 q -1.707 -4.45 -2.644 -8.475 c -0.55 -2.376 -0.619 -5.436 2.685 -5.5 q 3.624 -0.066 7.196 0.594 0.472 0.088 0.909 0.282 a 0.323 0.318 4.2 0 1 0.174 0.199 c 0.876 2.837 0.691 6.453 0.014 9.307 q -0.655 2.765 -2.909 5.025 z M 79.566 292.691 c -1.931 -1.605 3.798 -12.826 4.779 -14.892 q 2.017 -4.249 3.011 -8.843 c 0.204 -0.945 0.552 -1.743 1.155 -2.387 a 0.376 0.373 54.7 0 1 0.616 0.108 c 1.097 2.511 0.459 3.829 -0.461 6.809 q -2.826 9.169 -7.514 17.561 -0.497 0.892 -1.16 1.613 a 0.312 0.309 -49 0 1 -0.425 0.03 z M 118.906 278.539 c -3.569 -3.486 -3.961 -9.251 -3.017 -13.898 0.086 -0.423 0.301 -0.699 0.754 -0.79 q 3.16 -0.622 6.376 -0.715 c 3.903 -0.116 4.782 1.566 4.017 5.146 q -0.865 4.058 -2.519 8.39 c -0.953 2.494 -3.213 4.213 -5.61 1.867 z M 121.26 292.685 q -0.622 -0.522 -1.05 -1.282 -5.566 -9.923 -8.58 -20.901 -0.583 -2.122 0.539 -3.912 a 0.32 0.32 0 0 1 0.528 -0.022 c 0.624 0.845 0.939 1.492 1.177 2.588 1.099 5.122 3.022 8.986 5.544 14.113 0.97 1.972 3.144 7.227 2.348 9.285 a 0.32 0.32 0 0 1 -0.506 0.13 z" fill="#252830" stroke="#363B45" stroke-width="0.5"/>
<path d="M 72.796 268.948 a 0.166 0.166 0 0 1 0.301 -0.039 q 0.381 0.613 0.506 1.398 c 2.174 13.804 4.975 27.511 6.906 41.348 q 1.279 9.169 1.191 18.66 -0.011 0.953 -0.594 1.591 -0.11 0.122 -0.207 -0.008 -0.522 -0.713 -0.851 -1.522 c -3.213 -7.901 -5.652 -16.055 -6.702 -24.497 q -1.37 -11.041 -1.58 -19.207 c -0.036 -1.456 -0.047 -3.478 0.097 -5.243 q 0.47 -5.738 0.696 -11.492 c 0.011 -0.32 0.144 -0.671 0.238 -0.989 z M 128.008 268.972 a 0.193 0.193 0 0 1 0.345 -0.028 c 0.075 0.127 0.177 0.37 0.188 0.533 q 0.348 5.768 0.699 11.536 0.182 2.989 0.108 5.519 -0.34 11.262 -2.075 22.721 c -1.08 7.146 -3.367 14.24 -6.066 20.928 q -0.312 0.771 -0.903 1.693 -0.08 0.122 -0.196 0.033 c -0.74 -0.569 -0.641 -1.851 -0.633 -2.851 0.072 -8.572 0.749 -15.337 2.42 -25.249 q 2.561 -15.21 5.232 -30.401 c 0.221 -1.243 0.273 -2.906 0.881 -4.436 z" fill="#252830" stroke="#363B45" stroke-width="0.5"/>
<path d="M 80.63 333.732 c 1.514 -0.285 3.273 1.533 3.696 2.865 q 0.677 2.138 0.406 4.649 -0.025 0.229 -0.124 0.022 c -1.191 -2.5 -2.21 -4.693 -4.251 -6.597 a 0.547 0.547 0 0 1 0.273 -0.939 z M 76.21 351.088 c -1.218 -1.069 -2.044 -1.981 -1.356 -3.693 q 1.32 -3.293 1.517 -5.89 0.171 -2.285 1.718 -3.547 c 2.486 -2.025 5.746 4.144 6.381 6.105 0.704 2.185 1.334 4.519 1.24 6.768 -0.086 1.972 -0.558 4.807 -1.793 6.381 q -0.083 0.105 -0.146 -0.014 c -1.566 -2.967 -5.138 -3.981 -7.561 -6.11 z M 119.039 334.011 c 0.619 -0.373 2.912 -0.558 1.663 0.732 q -2.76 2.851 -4.094 6.575 a 0.077 0.077 0 0 1 -0.152 -0.022 c -0.144 -2.837 -0.133 -5.649 2.583 -7.285 z M 122.931 337.917 c 2.334 1.812 1.785 4.602 2.583 7.069 q 0.486 1.5 0.959 3.006 c 1.061 3.387 -7.666 5.936 -8.898 8.956 q -0.282 0.693 -0.599 0.014 c -1.909 -4.094 -1.876 -8.11 -0.492 -12.315 q 0.779 -2.367 2.215 -4.431 c 0.834 -1.202 2.655 -3.525 4.232 -2.298 z" fill="#252830" stroke="#363B45" stroke-width="0.5"/>
<path d="M 73.066 368.646 c -1.099 -0.094 -5.135 -1.174 -5.26 -2.608 a 0.387 0.387 0 0 1 0.075 -0.26 c 2.669 -3.599 5.773 -7.041 7.914 -10.989 q 0.069 -0.13 0.215 -0.102 2.696 0.492 4.898 2.113 a 0.329 0.326 43 0 1 0.019 0.514 c -0.365 0.307 -0.456 0.724 -0.293 1.202 0.818 2.367 -0.254 4.572 -1.329 7.0 -0.494 1.122 -0.486 2.483 -0.776 3.762 a 0.431 0.431 0 0 1 -0.55 0.315 q -2.309 -0.729 -4.914 -0.948 z M 80.627 370.199 c -0.622 -0.729 -0.572 -1.638 -0.215 -2.583 q 0.923 -2.453 1.11 -5.069 0.119 -1.663 0.345 -2.414 0.365 -1.207 0.953 -2.271 a 0.182 0.18 53.7 0 1 0.334 0.052 q 0.544 2.558 1.735 4.779 c 0.715 1.34 -0.227 3.174 -0.807 4.459 a 0.5 0.492 -35.8 0 0 -0.044 0.26 q 0.116 1.188 -0.525 2.193 -0.061 0.091 -0.169 0.119 l -2.428 0.569 a 0.293 0.293 0 0 1 -0.29 -0.094 z M 122.834 369.517 q -0.298 -0.359 -0.354 -0.854 c -0.144 -1.238 -0.202 -2.318 -0.765 -3.492 -0.97 -2.019 -1.95 -4.522 -1.224 -6.406 0.213 -0.55 0.254 -1.047 -0.21 -1.417 a 0.356 0.354 46.4 0 1 0.011 -0.564 q 2.199 -1.591 4.859 -2.11 0.127 -0.028 0.191 0.088 c 2.003 3.619 4.754 6.859 7.307 10.099 q 0.307 0.39 0.693 1.05 a 0.323 0.315 -51 0 1 0.025 0.262 c -0.483 1.384 -3.572 2.18 -4.909 2.362 q -2.727 0.376 -5.398 1.055 a 0.227 0.221 -26.2 0 1 -0.227 -0.075 z M 117.939 369.765 c -0.555 -0.094 -0.818 -1.514 -0.829 -1.967 -0.041 -1.663 -1.738 -3.218 -0.862 -4.942 q 1.202 -2.356 1.751 -4.903 a 0.215 0.215 0 0 1 0.406 -0.047 c 0.586 1.249 1.155 2.508 1.202 3.959 q 0.097 2.881 1.097 5.591 c 0.329 0.89 0.42 1.61 0.108 2.425 a 0.641 0.638 19.3 0 1 -0.793 0.381 q -0.95 -0.301 -2.08 -0.497 z" fill="#252830" stroke="#363B45" stroke-width="0.5"/>
<path d="M 78.732 84.809 a 0.246 0.246 0 0 1 -0.03 -0.453 q 5.37 -2.655 9.848 -6.851 0.464 -0.434 0.914 -0.086 0.11 0.088 0.124 0.227 0.345 3.483 -0.434 7.019 c -0.204 0.917 -0.704 1.169 -1.63 1.238 q -4.425 0.343 -8.793 -1.094 z M 114.365 85.964 c -1.448 -0.033 -2.157 -0.177 -2.459 -1.732 q -0.644 -3.34 -0.323 -6.613 0.017 -0.169 0.169 -0.246 0.459 -0.235 1.008 0.273 4.453 4.108 9.384 6.528 1.008 0.494 -0.075 0.798 -3.834 1.08 -7.704 0.992 z" fill="#4A9EE8" stroke="#4A9EE8" stroke-width="0.3" opacity="0.93"/>
<path d="M 75.707 86.102 q 1.088 0.765 1.196 2.249 0.011 0.133 -0.105 0.202 c -2.757 1.624 -6.727 2.058 -7.961 5.456 -0.638 1.757 -0.268 4.793 -0.395 6.541 q -0.152 2.075 -1.583 3.887 -2.865 3.622 -3.815 4.605 c -0.942 0.975 -1.881 0.486 -2.953 -0.13 -4.26 -2.45 -6.892 -7.03 -6.221 -11.939 0.566 -4.122 3.511 -7.124 6.646 -9.674 4.693 -3.818 9.829 -4.97 15.191 -1.196 z M 124.417 88.605 q -0.262 -0.144 -0.193 -0.436 c 0.434 -1.826 1.602 -2.514 3.354 -3.287 6.903 -3.047 12.088 0.92 16.622 5.729 5.727 6.075 3.262 15.591 -4.094 18.837 -1.218 0.536 -1.876 -0.285 -2.71 -1.246 -1.605 -1.851 -3.718 -3.901 -4.417 -6.298 -1.086 -3.71 1.193 -7.608 -2.663 -10.392 q -2.271 -1.638 -4.97 -2.508 -0.508 -0.163 -0.928 -0.398 z" fill="#A07AE8" stroke="#A07AE8" stroke-width="0.3" opacity="0.93"/>
<path d="M 75.39 116.807 c -5.235 -4.749 -6.077 -15.746 -3.492 -21.765 1.539 -3.588 7.331 -6.732 11.041 -7.146 q 5.624 -0.624 10.227 0.207 c 2.691 0.486 4.456 4.32 5.086 6.917 1.102 4.552 0.892 8.669 0.461 13.276 q -0.373 3.964 -0.566 4.666 c -1.801 6.492 -10.519 8.075 -16.099 6.776 -2.519 -0.586 -4.762 -1.21 -6.657 -2.931 z M 114.928 120.166 c -4.177 0.03 -9.519 -1.873 -11.428 -5.934 q -0.519 -1.102 -0.785 -3.365 c -0.798 -6.743 -1.63 -14.82 2.331 -20.66 1.177 -1.729 2.898 -2.191 5.072 -2.365 q 3.221 -0.254 6.442 -0.097 c 2.923 0.146 4.978 0.757 7.354 2.174 3.539 2.113 5.45 4.011 6.262 8.218 1.365 7.064 0.066 17.718 -7.793 20.71 q -3.387 1.29 -7.456 1.318 z" fill="#E05C5C" stroke="#E05C5C" stroke-width="0.3" opacity="0.93"/>
<path d="M 52.354 136.052 c -0.671 0.171 -2.039 0.157 -2.075 -0.851 -0.155 -4.423 -0.116 -9.804 1.412 -13.884 0.881 -2.359 3.837 -8.348 6.428 -9.039 2.785 -0.74 3.503 4.583 3.481 6.298 -0.061 4.414 -2.075 9.61 -4.157 13.456 -1.185 2.193 -2.749 3.42 -5.088 4.019 z M 145.494 134.34 c -2.735 -2.378 -4.903 -9.174 -5.704 -13.185 -0.39 -1.95 -0.37 -8.18 2.37 -8.884 2.854 -0.735 6.577 7.0 7.348 9.091 q 0.718 1.945 0.994 4.456 0.448 4.05 0.459 8.917 c 0.008 3.05 -4.544 0.409 -5.467 -0.395 z" fill="#E8C040" stroke="#E8C040" stroke-width="0.3" opacity="0.93"/>
<path d="M 35.146 188.688 c -1.124 -0.586 0.351 -7.478 0.622 -8.721 1.376 -6.362 2.533 -12.754 3.843 -19.13 q 0.423 -2.064 0.588 -4.18 c 0.257 -3.34 0.224 -6.119 1.721 -8.727 1.961 -3.406 3.74 -8.055 7.21 -10.146 a 0.547 0.544 62.7 0 1 0.785 0.251 c 0.53 1.238 0.533 2.287 0.569 3.909 0.122 5.461 -0.359 11.337 -2.409 16.483 -3.039 7.63 -6.138 15.251 -9.011 22.903 -1.116 2.972 -2.088 5.707 -3.541 7.29 q -0.163 0.18 -0.376 0.066 z M 55.663 145.691 a 0.232 0.232 0 0 1 0.185 0.18 c 1.099 4.738 -0.809 10.873 -3.025 15.03 -1.271 2.384 -3.608 5.644 -5.03 8.655 q -3.649 7.713 -6.79 15.646 -0.693 1.754 -1.826 3.044 a 0.395 0.395 0 0 1 -0.691 -0.224 q -0.099 -1.044 0.232 -1.981 2.848 -8.061 5.959 -16.019 c 1.746 -4.47 4.019 -8.743 5.707 -13.224 1.019 -2.713 1.481 -6.177 2.022 -8.459 0.412 -1.732 1.157 -3.055 3.257 -2.649 z M 57.273 149.282 a 0.166 0.163 -63.1 0 1 0.285 -0.094 l 1.486 1.663 q 0.11 0.124 0.091 0.293 -0.144 1.133 -0.356 1.613 -1.909 4.323 -3.782 8.66 c -1.494 3.461 -4.511 7.845 -6.494 12.401 -2.293 5.271 -4.428 10.862 -7.39 15.79 a 0.099 0.099 0 0 1 -0.171 0.0 l -0.052 -0.088 q -0.047 -0.077 -0.017 -0.163 2.785 -8.262 6.367 -16.202 0.801 -1.773 1.511 -3.097 c 1.276 -2.373 3.0 -4.467 4.039 -6.359 q 3.655 -6.666 4.483 -14.417 z M 165.768 188.685 c -1.381 -1.144 -2.478 -4.271 -3.119 -5.956 -1.608 -4.213 -3.144 -8.439 -4.856 -12.624 q -2.528 -6.185 -4.978 -12.401 c -1.541 -3.92 -2.022 -8.68 -2.207 -12.865 -0.08 -1.779 -0.188 -5.367 0.738 -6.912 a 0.472 0.472 0 0 1 0.622 -0.174 c 1.856 0.972 3.119 2.751 4.108 4.558 q 1.727 3.144 3.503 6.26 c 0.544 0.953 0.809 2.116 0.942 3.331 0.32 2.928 0.428 5.881 1.011 8.743 1.086 5.329 2.039 10.671 3.169 16.0 0.414 1.953 2.569 10.796 1.414 12.017 a 0.251 0.251 0 0 1 -0.345 0.022 z M 162.039 188.249 q -1.202 -1.235 -1.865 -2.931 -3.135 -7.986 -6.793 -15.749 c -1.58 -3.351 -3.956 -6.315 -5.517 -9.696 -1.961 -4.243 -3.564 -9.204 -2.561 -13.898 a 0.398 0.395 -87.1 0 1 0.34 -0.309 c 2.064 -0.243 2.566 0.796 3.044 2.541 0.936 3.431 1.315 7.157 2.693 10.138 4.296 9.296 7.627 17.939 10.859 27.188 0.312 0.895 0.566 1.511 0.448 2.497 a 0.381 0.378 26.3 0 1 -0.649 0.218 z M 160.105 189.622 q -1.083 -1.594 -1.898 -3.351 -2.224 -4.79 -5.456 -12.293 -0.74 -1.724 -1.785 -3.762 c -1.42 -2.776 -3.633 -6.177 -4.79 -8.798 q -2.638 -5.989 -3.773 -8.663 -0.301 -0.713 -0.367 -1.622 -0.011 -0.169 0.102 -0.296 l 1.448 -1.616 a 0.191 0.191 0 0 1 0.331 0.11 q 0.757 7.472 4.279 14.019 0.47 0.876 2.282 3.552 1.939 2.87 3.365 6.044 2.406 5.362 5.577 13.84 0.613 1.635 0.865 2.757 a 0.099 0.099 0 0 1 -0.18 0.077 z" fill="#E09040" stroke="#E09040" stroke-width="0.3" opacity="0.93"/>
<path d="M 85.917 146.881 a 0.064 0.064 0 0 1 -0.052 -0.058 q -0.108 -2.892 0.525 -5.735 c 0.348 -1.572 2.116 -2.735 3.619 -3.564 2.511 -1.384 5.229 -3.08 7.89 -4.122 a 0.343 0.334 -42.6 0 1 0.26 0.008 c 0.906 0.42 1.32 1.069 1.331 2.122 q 0.036 3.635 -0.041 7.268 c -0.022 1.064 0.215 2.318 -0.24 3.619 q -0.047 0.127 -0.163 0.199 -0.732 0.456 -1.185 0.503 -5.818 0.613 -11.942 -0.24 z M 88.674 159.602 c -1.428 -0.091 -2.406 -0.122 -2.762 -1.729 q -0.884 -3.989 -0.163 -7.688 0.03 -0.146 0.177 -0.174 c 2.094 -0.398 3.762 -0.677 6.202 -1.26 q 3.177 -0.762 6.613 -0.519 c 1.014 0.072 0.912 0.956 0.939 1.715 q 0.127 3.467 -0.091 7.442 -0.069 1.218 -0.5 2.232 -0.058 0.135 -0.202 0.166 -0.384 0.077 -0.89 0.08 -4.666 0.039 -9.323 -0.265 z M 96.058 118.577 c 2.061 -0.997 2.901 1.732 3.036 3.182 0.133 1.398 0.956 8.456 -0.768 9.097 q -1.152 0.428 -1.903 0.92 -4.851 3.188 -9.912 5.928 a 0.442 0.439 -21.9 0 1 -0.635 -0.271 c -0.793 -2.876 -2.925 -12.144 0.459 -14.075 3.122 -1.782 6.619 -3.276 9.724 -4.782 z M 96.782 196.909 c -8.052 -2.743 -10.492 -27.815 -10.903 -34.975 a 0.273 0.273 0 0 1 0.091 -0.221 c 0.989 -0.901 7.627 -0.406 9.564 -0.257 1.218 0.094 4.218 0.362 4.215 2.08 -0.014 11.262 0.177 22.666 -0.541 33.901 a 0.356 0.356 0 0 1 -0.514 0.298 c -0.635 -0.315 -1.138 -0.564 -1.912 -0.826 z M 102.746 130.749 c -1.508 -0.715 -0.82 -6.702 -0.765 -8.166 0.069 -1.878 0.666 -5.146 3.492 -3.812 q 4.492 2.119 8.934 4.343 1.707 0.856 1.97 2.776 c 0.16 1.177 0.373 2.345 0.296 3.514 q -0.232 3.467 -1.196 7.337 -0.149 0.597 -0.304 0.95 -0.069 0.16 -0.224 0.086 c -4.359 -2.014 -8.506 -5.271 -12.202 -7.028 z M 105.682 147.312 c -1.152 -0.05 -2.641 -0.083 -3.633 -0.743 q -0.047 -0.03 -0.066 -0.086 c -0.503 -1.533 -0.238 -3.086 -0.265 -4.326 -0.05 -2.32 -0.215 -4.796 0.017 -7.102 0.08 -0.787 0.519 -1.221 1.146 -1.599 q 0.116 -0.072 0.251 -0.052 0.472 0.069 0.887 0.285 3.448 1.779 6.837 3.663 c 1.37 0.76 3.373 1.939 3.79 3.428 q 0.809 2.917 0.66 5.936 a 0.213 0.21 -1.8 0 1 -0.185 0.196 q -4.666 0.602 -9.439 0.401 z M 103.246 159.859 c -0.682 0.0 -1.191 0.061 -1.381 -0.746 -0.497 -2.127 -0.843 -9.472 -0.052 -10.721 q 0.075 -0.119 0.213 -0.13 3.63 -0.343 7.119 0.506 c 2.323 0.564 4.008 0.831 6.036 1.204 a 0.356 0.354 .6 0 1 0.29 0.296 q 0.597 3.901 -0.202 7.754 c -0.298 1.448 -1.442 1.453 -2.862 1.555 q -3.939 0.287 -9.16 0.282 z M 115.006 161.528 q 0.315 0.113 0.296 0.448 c -0.448 7.304 -2.751 32.232 -11.169 35.011 -0.627 0.207 -1.146 0.586 -1.754 0.754 q -0.326 0.091 -0.359 -0.246 -0.238 -2.541 -0.293 -4.903 c -0.229 -9.854 -0.251 -19.669 -0.279 -29.525 q 0.0 -0.138 0.086 -0.246 c 1.367 -1.785 11.517 -2.003 13.472 -1.293 z" fill="#38C49A" stroke="#38C49A" stroke-width="0.3" opacity="0.93"/>
<path d="M 80.779 258.453 q -0.262 -0.144 -0.434 -0.387 -1.133 -1.599 -1.934 -3.738 -2.155 -5.743 -3.674 -11.693 c -2.503 -9.815 -5.34 -19.713 -6.914 -29.721 -1.472 -9.354 1.105 -20.494 5.718 -28.555 q 0.097 -0.171 0.146 0.019 c 3.989 15.351 10.782 29.818 11.45 45.674 0.307 7.276 0.182 14.63 -0.994 21.831 -0.174 1.058 -1.307 7.682 -3.365 6.569 z M 75.997 260.478 q -0.669 -0.602 -0.986 -1.448 c -1.099 -2.931 -2.122 -5.807 -3.539 -8.652 -2.169 -4.354 -2.975 -9.547 -3.646 -14.215 -0.583 -4.041 -0.638 -8.693 -1.086 -13.033 -0.061 -0.597 -0.287 -3.53 0.127 -3.809 q 0.376 -0.254 0.575 0.152 c 0.414 0.851 0.862 1.691 1.011 2.646 q 2.268 14.47 7.282 28.218 c 0.793 2.174 2.757 8.425 0.511 10.149 a 0.196 0.193 -42.5 0 1 -0.249 -0.008 z M 89.141 261.249 c -1.03 1.696 -2.975 -0.671 -3.481 -1.547 -0.873 -1.511 -0.724 -4.124 -0.492 -5.749 1.113 -7.76 1.547 -14.588 0.961 -22.315 q -0.017 -0.218 0.077 -0.022 4.356 9.069 3.939 19.033 c -0.11 2.635 -0.812 6.21 -0.804 9.428 q 0.003 0.834 -0.202 1.171 z M 120.945 257.878 c -2.459 3.917 -4.185 -7.387 -4.271 -8.08 q -1.453 -11.89 -0.329 -23.779 c 1.354 -14.309 7.434 -27.436 11.155 -41.691 q 0.05 -0.182 0.138 -0.017 c 4.765 8.749 7.014 18.862 5.674 28.829 q -0.633 4.702 -2.406 11.812 -2.088 8.356 -4.199 16.704 -1.693 6.699 -4.16 13.152 -0.506 1.323 -1.602 3.069 z M 124.804 260.387 c -2.749 -2.765 1.373 -11.854 2.47 -15.307 q 3.467 -10.92 5.323 -22.229 c 0.135 -0.82 0.729 -3.409 1.494 -3.669 a 0.229 0.229 0 0 1 0.301 0.177 q 0.204 1.105 0.124 2.188 c -0.55 7.326 -0.931 16.296 -3.041 24.235 q -0.699 2.624 -2.061 5.193 c -1.21 2.276 -1.925 4.619 -2.785 6.981 q -0.459 1.254 -1.257 2.384 a 0.373 0.373 0 0 1 -0.569 0.047 z M 112.345 261.55 c -0.895 -0.765 -0.409 -2.939 -0.555 -4.064 q -0.616 -4.746 -0.71 -6.122 c -0.483 -6.925 0.997 -13.566 3.862 -19.867 q 0.064 -0.141 0.055 0.014 c -0.331 5.29 -0.354 10.547 0.229 15.851 q 0.464 4.254 0.936 8.508 c 0.119 1.083 -0.086 2.682 -0.577 3.682 -0.448 0.906 -2.094 2.975 -3.24 1.997 z" fill="#52C07A" stroke="#52C07A" stroke-width="0.3" opacity="0.93"/>
<path d="M 69.638 285.24 c 0.066 -1.025 0.591 -6.124 1.279 -6.68 a 0.285 0.282 -17.9 0 1 0.461 0.235 c -0.124 2.18 -0.351 4.42 -0.412 6.478 q -0.157 5.229 -0.182 10.464 -0.006 1.003 0.094 1.892 c 0.575 5.182 1.536 10.309 2.569 15.414 1.055 5.204 2.522 10.398 3.622 15.644 q 0.674 3.227 0.575 4.959 c -0.088 1.575 -0.851 5.66 -2.351 6.608 a 0.171 0.171 0 0 1 -0.232 -0.044 q -0.331 -0.456 -0.262 -0.981 c 0.254 -2.006 0.401 -3.909 -0.083 -5.945 q -2.279 -9.597 -3.762 -16.315 c -0.514 -2.331 -0.876 -4.746 -1.086 -7.265 q -1.019 -12.221 -0.229 -24.464 z M 87.019 283.196 a 0.044 0.044 0 0 1 0.088 0.006 c 1.122 7.113 2.481 14.564 2.406 21.494 q -0.036 3.331 -1.586 7.268 c -1.989 5.055 -2.467 10.655 -4.406 15.727 q -0.05 0.133 -0.058 -0.008 c -0.517 -9.522 -1.566 -18.207 -2.365 -28.53 q -0.268 -3.45 1.227 -6.392 2.064 -4.058 4.182 -8.091 c 0.224 -0.428 0.373 -1.0 0.511 -1.472 z M 125.829 340.24 c -1.97 -1.605 -2.55 -6.724 -2.265 -8.801 0.39 -2.851 1.279 -6.392 2.204 -10.036 q 2.635 -10.348 4.185 -20.923 c 0.79 -5.387 0.423 -11.091 0.207 -16.519 -0.061 -1.566 -0.271 -3.456 -0.34 -5.18 a 0.268 0.268 0 0 1 0.517 -0.11 c 0.097 0.238 0.254 0.486 0.309 0.74 q 0.818 3.953 0.914 5.671 0.655 11.956 -0.135 23.412 -0.334 4.812 -1.5 9.881 -1.749 7.599 -3.547 15.188 -0.555 2.345 -0.03 5.072 c 0.099 0.525 0.03 1.091 -0.188 1.533 a 0.218 0.218 0 0 1 -0.331 0.072 z M 114.025 283.271 a 0.039 0.039 0 0 1 0.075 -0.011 c 1.348 3.21 3.019 6.08 4.773 9.608 1.124 2.262 1.301 3.981 1.133 6.699 -0.588 9.475 -1.732 19.019 -2.334 28.064 q -0.014 0.191 -0.086 0.014 -0.409 -1.014 -0.63 -1.865 c -1.199 -4.627 -2.425 -10.602 -4.528 -15.903 q -0.387 -0.981 -0.608 -2.793 c -0.492 -4.069 -0.055 -8.63 0.564 -12.674 q 0.845 -5.53 1.641 -11.138 z" fill="#8870E8" stroke="#8870E8" stroke-width="0.3" opacity="0.93"/>
</g>
<g transform="translate(410,55)"><path d="M 84.017 45.981 c 0.285 1.398 0.376 2.655 1.771 3.185 3.608 1.367 4.624 4.285 6.497 7.591 0.383 0.676 1.067 1.001 2.052 0.975 a 251.388 251.388 0 0 1 10.204 -0.069 c 1.721 0.025 2.561 -2.086 3.171 -3.398 1.191 -2.561 2.865 -4.373 5.602 -5.232 0.092 -0.028 0.167 -0.079 0.224 -0.155 0.53 -0.713 0.841 -1.5 0.931 -2.362 l 0.638 -0.417 a 0.27 0.27 0 0 1 0.273 -0.022 c 3.293 1.497 -0.925 9.754 -2.268 11.727 -0.21 0.307 -0.669 0.284 -0.845 -0.041 l -0.348 -0.641 c -0.037 -0.07 -0.088 -0.082 -0.155 -0.036 -0.094 0.066 -0.133 0.169 -0.116 0.307 0.238 2.11 0.207 4.66 -0.818 6.439 -0.048 0.083 0.232 0.011 -1.022 1.301 -0.923 0.949 -20.492 1.044 -20.851 -0.381 a 0.405 0.405 0 0 0 -0.152 -0.227 c -1.146 -0.82 -1.677 -2.196 -1.702 -3.423 -0.008 -0.464 0.05 -3.945 -0.146 -4.041 -0.057 -0.028 -0.091 -0.01 -0.102 0.052 -0.083 0.429 -0.327 0.717 -0.732 0.865 a 0.263 0.263 0 0 1 -0.296 -0.088 c -2.014 -2.641 -3.403 -6.127 -3.583 -9.265 -0.094 -1.669 0.496 -2.55 1.771 -2.644 z m 8.273 17.047 c 0.048 3.919 5.24 4.062 5.276 -0.378 0.008 -1.119 -0.105 -1.807 -1.293 -2.017 -1.16 -0.207 -3.279 -0.406 -3.826 0.804 -0.114 0.254 -0.167 0.785 -0.157 1.591 z m 8.76 -0.925 c 0.099 5.427 5.135 4.094 5.213 1.641 0.036 -1.077 0.365 -2.605 -0.796 -2.981 -1.174 -0.381 -4.453 -0.702 -4.417 1.34 z" fill="#252830" stroke="#363B45" stroke-width="0.5"/>
<path d="M 114.47 46.517 q -0.135 1.293 -0.931 2.362 -0.086 0.113 -0.224 0.155 c -2.738 0.859 -4.412 2.671 -5.602 5.232 -0.61 1.312 -1.45 3.423 -3.171 3.398 q -5.099 -0.069 -10.204 0.069 -1.478 0.039 -2.052 -0.975 c -1.873 -3.307 -2.89 -6.224 -6.497 -7.591 -1.395 -0.53 -1.486 -1.787 -1.771 -3.185 q -1.834 -7.227 1.224 -13.503 c 2.246 -4.613 9.561 -5.914 14.249 -5.812 1.351 0.03 2.677 -0.03 3.983 0.235 5.191 1.05 9.163 2.348 10.867 7.917 q 1.762 5.768 0.13 11.699 z" fill="#252830" stroke="#363B45" stroke-width="0.5"/>
<path d="M 82.525 80.285 a 0.171 0.169 25.9 0 1 -0.099 -0.285 q 0.472 -0.506 1.135 -0.859 c 2.262 -1.202 5.359 -2.293 6.459 -4.829 q 2.343 -5.406 2.271 -11.285 -0.014 -1.21 0.157 -1.591 c 0.547 -1.21 2.666 -1.011 3.826 -0.804 1.188 0.21 1.301 0.898 1.293 2.017 q -0.055 6.66 -0.243 13.315 c -0.033 1.174 0.442 4.376 -1.348 4.508 -4.025 0.298 -9.006 0.5 -13.45 -0.188 z M 102.693 80.514 c -1.188 -0.069 -1.354 -1.102 -1.367 -2.13 q -0.127 -8.141 -0.276 -16.282 c -0.036 -2.041 3.243 -1.721 4.417 -1.34 1.16 0.376 0.831 1.903 0.796 2.981 -0.077 2.453 1.423 11.354 4.232 12.923 q 2.376 1.329 4.771 2.627 0.544 0.296 0.901 0.652 a 0.221 0.218 63.6 0 1 -0.124 0.373 c -4.453 0.599 -9.331 0.431 -13.348 0.196 z" fill="#252830" stroke="#363B45" stroke-width="0.5"/>
<path d="M 42.663 147.619 a 0.041 0.041 0 0 1 0.05 -0.036 c 0.13 0.033 1.845 4.356 1.953 4.757 q 1.84 6.831 1.525 13.892 c -0.11 2.459 -0.953 4.793 -1.834 7.058 -2.193 5.63 -4.809 11.569 -8.174 16.599 a 0.287 0.282 -54.2 0 1 -0.412 0.069 c -0.094 -0.072 0.102 -0.401 0.13 -0.506 q 1.541 -5.746 2.478 -11.624 2.39 -14.959 4.285 -30.21 z M 46.685 143.351 a 0.108 0.105 24.6 0 1 0.191 -0.069 q 1.649 2.163 3.622 4.218 c 2.232 2.32 0.39 7.936 -1.624 10.254 a 0.29 0.29 0 0 1 -0.45 -0.014 c -1.682 -2.191 -1.494 -5.177 -1.373 -7.856 0.099 -2.243 -0.21 -4.337 -0.365 -6.533 z M 40.072 151.157 c 0.597 0.099 0.461 1.715 0.434 2.155 q -0.702 10.729 -2.517 21.315 c -0.84 4.892 -2.34 11.409 -6.102 14.942 a 0.105 0.105 0 0 1 -0.171 -0.113 c 4.008 -11.171 5.249 -23.276 7.403 -34.892 q 0.249 -1.348 0.409 -2.989 0.05 -0.5 0.544 -0.417 z M 38.74 188.558 q 4.169 -7.785 6.939 -16.174 c 2.249 -6.804 3.776 -11.713 5.743 -16.671 q 0.914 -2.312 3.337 -2.66 c 0.373 -0.055 1.017 -0.207 1.343 0.058 q 0.312 0.257 0.169 0.635 -1.602 4.268 -3.326 8.254 c -1.599 3.699 -4.122 7.923 -5.613 11.088 -1.691 3.591 -7.754 16.348 -8.74 15.646 a 0.058 0.058 0 0 1 0.008 -0.099 q 0.041 -0.019 0.094 -0.036 0.033 -0.011 0.047 -0.041 z M 151.655 143.489 c 0.075 -0.091 0.091 -0.207 0.207 -0.29 a 0.088 0.088 0 0 1 0.138 0.08 c -0.193 1.994 -0.489 3.959 -0.459 5.95 0.036 2.47 0.588 6.63 -1.478 8.61 q -0.102 0.097 -0.202 0.0 c -2.108 -2.086 -3.923 -7.815 -1.801 -10.199 q 1.823 -2.047 3.594 -4.152 z M 162.657 190.066 c -1.32 -1.66 -1.989 -2.983 -3.249 -5.403 q -3.423 -6.572 -5.809 -13.13 c -1.343 -3.691 -1.442 -7.229 -1.058 -11.102 q 0.312 -3.177 0.743 -5.395 0.751 -3.862 2.649 -7.401 a 0.047 0.047 0 0 1 0.088 0.017 q 2.006 17.436 4.757 33.285 0.671 3.878 1.942 8.439 c 0.061 0.218 0.204 0.367 0.099 0.663 a 0.094 0.094 0 0 1 -0.163 0.028 z M 158.155 154.285 c -0.061 -0.812 -0.398 -2.831 0.552 -3.326 a 0.171 0.169 -18.4 0 1 0.246 0.122 q 1.727 9.859 3.373 19.633 c 1.072 6.354 2.423 12.762 4.622 18.837 a 0.08 0.08 0 0 1 -0.13 0.086 c -3.224 -2.948 -4.997 -8.605 -5.771 -12.702 q -2.008 -10.649 -2.892 -22.649 z M 160.083 188.84 c -0.798 -0.182 -2.807 -3.649 -3.345 -4.702 -2.431 -4.754 -4.674 -9.616 -7.138 -14.334 -1.481 -2.837 -3.033 -5.66 -4.251 -8.55 q -1.619 -3.829 -3.058 -7.68 a 0.45 0.448 79.5 0 1 0.414 -0.608 c 3.597 -0.044 4.282 1.983 5.428 5.196 q 2.497 6.997 4.815 14.058 2.666 8.113 6.58 15.702 0.24 0.467 0.588 0.862 0.066 0.077 -0.033 0.055 z" fill="#252830" stroke="#363B45" stroke-width="0.5"/>
<path d="M 18.069 200.785 c 1.099 -1.876 2.732 -4.033 4.575 -5.564 a 0.086 0.086 0 0 1 0.133 0.097 c -1.213 3.055 -1.486 6.061 -3.873 8.486 -1.608 1.638 -2.956 2.71 -5.26 2.367 q -0.152 -0.022 -0.163 -0.174 c -0.066 -0.848 -0.072 -2.014 0.856 -2.445 1.331 -0.624 2.961 -1.459 3.732 -2.768 z M 23.003 205.887 c 4.865 0.964 0.76 3.735 -0.202 5.246 q -2.776 4.37 -6.039 8.39 -0.431 0.53 -0.696 -0.16 a 0.666 0.644 -55.4 0 1 -0.044 -0.265 q 0.055 -1.453 0.76 -2.682 c 1.917 -3.34 3.624 -6.773 5.448 -10.163 q 0.251 -0.47 0.773 -0.365 z M 26.326 205.751 c -2.152 -1.674 -4.008 -3.425 -3.282 -6.459 0.848 -3.544 4.05 -5.718 6.945 -7.287 2.644 -1.431 10.39 -0.207 10.387 3.779 q -0.003 4.486 -1.014 8.837 c -0.657 2.834 -1.24 4.541 -4.66 4.503 -2.959 -0.036 -6.058 -1.575 -8.376 -3.373 z M 28.727 209.467 a 0.575 0.572 26.6 0 1 0.251 0.754 q -2.892 6.086 -5.431 12.442 -0.622 1.555 -2.273 1.862 a 0.401 0.398 84.3 0 1 -0.47 -0.387 q -0.028 -1.185 0.417 -2.296 2.017 -5.066 3.829 -10.21 c 0.204 -0.58 0.423 -1.68 0.82 -2.475 q 0.072 -0.138 0.227 -0.157 1.395 -0.177 2.63 0.467 z M 32.508 210.586 a 0.21 0.207 -79.1 0 1 0.166 0.246 q -1.246 6.392 -2.564 12.671 c -0.202 0.964 -0.577 1.583 -1.616 1.5 q -0.144 -0.011 -0.169 -0.155 -0.204 -1.254 -0.088 -1.992 0.798 -5.13 1.544 -10.271 0.105 -0.732 0.461 -2.271 0.036 -0.149 0.188 -0.122 l 2.077 0.392 z M 36.119 220.865 a 0.215 0.215 0 0 1 -0.378 -0.006 q -0.251 -0.483 -0.318 -1.185 -0.448 -4.58 -0.331 -9.185 a 0.232 0.232 0 0 1 0.169 -0.215 l 1.959 -0.533 q 0.163 -0.044 0.155 0.124 -0.16 4.08 -0.309 8.166 c -0.039 1.122 -0.425 1.895 -0.945 2.834 z M 169.169 207.724 c -2.409 1.24 -8.116 2.84 -9.285 -0.994 q -1.569 -5.152 -1.61 -10.564 c -0.017 -2.097 1.108 -3.246 3.064 -3.89 2.445 -0.807 5.254 -1.464 7.608 -0.097 2.414 1.406 5.08 3.116 6.202 5.804 0.843 2.017 0.923 3.773 -0.492 5.528 -1.439 1.787 -3.45 3.163 -5.486 4.213 z M 179.646 203.729 c -2.224 -2.249 -2.655 -5.434 -3.826 -8.494 a 0.061 0.061 0 0 1 0.097 -0.066 q 2.845 2.475 4.724 5.738 c 0.71 1.235 2.508 2.097 3.749 2.704 0.859 0.42 0.818 1.63 0.749 2.412 q -0.014 0.144 -0.157 0.163 c -2.45 0.323 -3.724 -0.823 -5.334 -2.456 z M 182.254 219.738 c -0.163 -0.058 -0.265 -0.047 -0.384 -0.188 -2.442 -2.845 -4.378 -5.939 -6.475 -8.953 -0.776 -1.11 -2.434 -2.11 -2.058 -3.63 q 0.041 -0.166 0.193 -0.232 l 2.169 -0.95 q 0.182 -0.08 0.312 0.069 0.652 0.754 1.152 1.793 2.033 4.207 4.666 8.693 c 0.644 1.094 0.84 2.097 0.641 3.273 a 0.16 0.16 0 0 1 -0.215 0.124 z M 177.29 224.481 c -0.746 -0.077 -1.773 -0.735 -2.069 -1.472 q -2.414 -6.011 -5.483 -12.635 c -0.586 -1.265 1.809 -1.428 2.519 -1.439 0.497 -0.008 0.533 0.196 0.657 0.602 q 1.58 5.066 4.24 11.635 c 0.204 0.508 1.329 3.434 0.135 3.309 z M 161.37 209.715 l 2.055 0.58 q 0.064 0.019 0.066 0.086 0.207 4.492 -0.238 8.953 -0.083 0.829 -0.345 1.514 a 0.218 0.218 0 0 1 -0.392 0.033 q -1.077 -1.818 -1.055 -3.84 0.044 -3.61 -0.229 -7.213 -0.014 -0.157 0.138 -0.113 z M 170.185 224.959 c -0.746 0.227 -1.378 -0.32 -1.53 -1.025 q -1.398 -6.489 -2.713 -13.113 a 0.213 0.21 -10.7 0 1 0.171 -0.249 l 2.077 -0.381 q 0.163 -0.03 0.202 0.13 c 0.575 2.356 0.901 5.483 1.166 7.113 q 0.577 3.569 0.881 5.84 0.094 0.702 -0.091 1.508 a 0.238 0.232 88.4 0 1 -0.163 0.177 z" fill="#252830" stroke="#363B45" stroke-width="0.5"/>
<path d="M 95.597 216.903 c 0.815 0.376 0.497 2.881 0.412 3.602 q -1.099 9.191 -4.05 17.848 a 0.108 0.108 0 0 1 -0.21 -0.047 c 0.249 -1.948 0.638 -3.948 0.597 -5.779 q -0.188 -8.326 -5.169 -15.061 -0.08 -0.108 0.05 -0.135 c 2.05 -0.42 6.5 -1.296 8.37 -0.428 z M 111.392 217.586 c -4.417 5.936 -6.16 13.401 -4.442 20.671 a 0.13 0.127 -63.2 0 1 -0.243 0.08 q -0.55 -1.296 -1.008 -2.829 -2.29 -7.666 -3.204 -15.619 c -0.18 -1.577 -0.304 -3.251 1.898 -3.287 q 3.591 -0.052 7.094 0.782 a 0.086 0.066 41.2 0 1 0.028 0.146 q -0.033 0.003 -0.075 0.019 -0.028 0.011 -0.047 0.036 z" fill="#252830" stroke="#363B45" stroke-width="0.5"/>
<path d="M 75.76 364.785 c -1.276 0.066 -2.257 -0.298 -2.425 -1.735 -0.442 -3.815 -0.207 -7.97 -0.597 -11.715 q -0.108 -1.033 0.066 -1.942 a 0.191 0.191 0 0 1 0.34 -0.077 c 0.649 0.87 1.166 1.588 1.42 2.669 0.425 1.815 0.528 6.235 2.754 6.655 q 3.682 0.691 4.401 -2.892 c 0.254 -1.262 0.276 -3.406 1.395 -4.765 q 0.116 -0.141 0.116 0.041 c 0.03 3.975 0.11 8.525 -0.851 12.304 -0.218 0.865 -0.914 1.169 -1.798 1.215 q -2.412 0.124 -4.82 0.243 z M 117.541 364.506 c -1.914 -0.174 -1.884 -4.994 -1.972 -6.547 q -0.202 -3.461 -0.163 -6.931 0.003 -0.196 0.124 -0.041 0.757 0.964 0.909 1.981 c 0.461 3.108 0.887 7.0 5.442 5.522 1.345 -0.436 1.942 -5.13 2.18 -6.412 0.218 -1.16 0.757 -1.934 1.459 -2.798 a 0.155 0.155 0 0 1 0.271 0.061 c 0.309 1.271 0.011 3.423 -0.102 4.768 -0.254 2.975 -0.088 5.934 -0.42 8.942 q -0.193 1.721 -1.936 1.707 -3.351 -0.03 -5.79 -0.251 z" fill="#252830" stroke="#363B45" stroke-width="0.5"/>
<path d="M 65.986 366.68 q -0.171 -0.141 -0.014 -0.296 l 0.55 -0.55 q 0.108 -0.108 0.257 -0.113 7.088 -0.227 14.16 0.276 0.37 0.028 1.224 0.406 0.127 0.055 0.191 0.177 0.508 0.967 0.793 1.997 c 0.641 2.315 -1.831 2.0 -3.378 1.845 q -4.246 -0.423 -8.425 -1.26 c -2.268 -0.456 -3.682 -1.091 -5.356 -2.483 z M 118.881 370.539 c -3.448 0.376 -3.666 -1.072 -2.395 -3.693 0.503 -1.039 3.514 -1.008 4.528 -1.041 q 5.37 -0.174 10.746 -0.122 c 0.666 0.006 0.914 0.276 1.273 0.762 q 0.088 0.122 -0.025 0.218 c -1.5 1.29 -2.906 1.981 -4.959 2.414 q -4.547 0.959 -9.169 1.461 z" fill="#252830" stroke="#363B45" stroke-width="0.5"/>
<path d="M 95.873 85.343 c 1.547 1.359 1.923 4.925 2.052 6.873 q 0.414 6.16 0.257 12.343 -0.331 12.917 -1.564 25.967 a 0.157 0.155 3.7 0 1 -0.163 0.141 q -0.188 -0.008 -0.26 -0.279 -1.185 -4.392 -2.704 -6.959 c -2.829 -4.782 -5.193 -8.796 -7.069 -13.646 -2.815 -7.287 -4.309 -14.994 -7.309 -22.26 q -0.848 -2.052 -2.102 -3.887 -0.083 -0.119 0.055 -0.166 3.445 -1.182 7.039 -1.34 c 1.53 -0.069 3.356 0.238 5.061 0.39 2.68 0.24 4.633 0.994 6.707 2.823 z M 121.541 83.459 a 0.119 0.119 0 0 1 0.061 0.18 q -1.956 2.975 -3.152 6.456 c -2.909 8.456 -4.917 17.387 -8.646 25.157 -1.412 2.939 -4.191 6.967 -5.558 10.017 q -1.127 2.508 -1.82 5.202 a 0.213 0.213 0 0 1 -0.417 -0.033 q -1.18 -12.472 -1.525 -25.135 c -0.155 -5.602 -0.204 -11.028 0.76 -16.693 0.287 -1.693 0.765 -2.757 2.169 -3.826 2.707 -2.066 4.978 -2.135 8.315 -2.517 3.32 -0.384 6.608 0.11 9.815 1.193 z" fill="#4A9EE8" stroke="#4A9EE8" stroke-width="0.3" opacity="0.93"/>
<path d="M 70.901 88.282 c 0.052 0.039 0.152 0.052 0.18 0.088 a 0.221 0.221 0 0 1 -0.044 0.318 c -1.873 1.312 -4.215 2.699 -5.533 4.304 -1.771 2.149 -2.42 4.685 -2.608 7.47 -0.108 1.635 -0.464 2.624 -1.544 3.71 -2.768 2.785 -5.26 4.55 -8.602 5.638 q -0.207 0.069 -0.207 -0.152 0.052 -5.083 -0.025 -10.028 -0.039 -2.597 0.296 -3.928 c 1.116 -4.439 6.298 -9.351 10.961 -9.845 2.76 -0.293 4.79 0.68 7.127 2.425 z M 139.033 87.414 c 4.039 2.608 7.039 5.809 7.033 10.914 q -0.006 5.68 -0.003 11.428 a 0.102 0.102 0 0 1 -0.141 0.097 c -1.403 -0.569 -2.876 -1.099 -4.116 -1.925 -2.166 -1.448 -5.84 -4.13 -6.014 -6.892 -0.191 -2.97 -0.776 -5.76 -2.696 -8.08 -1.293 -1.561 -3.58 -2.923 -5.414 -4.215 q -0.34 -0.24 0.003 -0.472 c 1.271 -0.865 2.738 -1.873 4.213 -2.204 q 3.751 -0.837 7.135 1.351 z" fill="#A07AE8" stroke="#A07AE8" stroke-width="0.3" opacity="0.93"/>
<path d="M 57.191 122.18 c -0.555 0.71 -1.801 2.682 -2.796 2.533 q -0.144 -0.022 -0.221 -0.144 -0.373 -0.577 -0.508 -1.227 c -0.622 -3.003 -0.906 -6.32 0.373 -9.221 1.506 -3.406 5.047 -6.541 8.18 -8.619 a 0.13 0.127 68.7 0 1 0.196 0.088 l 1.773 10.641 q 0.025 0.149 -0.072 0.268 c -0.13 0.16 -0.309 0.42 -0.472 0.536 q -2.517 1.818 -4.994 3.691 -0.801 0.608 -1.459 1.453 z M 64.682 117.986 a 0.113 0.113 0 0 1 0.152 0.075 q 1.227 4.464 -0.616 8.677 -0.931 2.135 -1.633 5.519 c -0.417 2.011 -2.467 3.373 -3.262 5.199 -0.669 1.536 -0.666 3.453 -0.97 4.602 -0.591 2.227 -2.351 3.909 -3.843 5.561 a 0.257 0.257 0 0 1 -0.425 -0.069 q -0.157 -0.359 -0.207 -0.798 c -0.533 -4.671 0.696 -9.26 1.577 -13.809 0.597 -3.097 -0.425 -6.671 2.674 -9.555 q 2.635 -2.448 5.401 -4.76 c 0.359 -0.298 0.746 -0.475 1.152 -0.641 z M 49.605 143.555 a 0.508 0.503 -5.4 0 1 -0.309 -0.254 q -0.978 -1.925 -1.017 -4.196 c -0.102 -5.856 1.05 -11.749 2.624 -17.525 q 0.091 -0.34 0.254 -0.028 1.282 2.425 2.376 5.157 c 0.796 1.992 1.157 3.586 0.519 5.682 q -1.677 5.514 -3.873 10.837 -0.18 0.436 -0.575 0.326 z M 135.343 117.282 q -0.558 -0.414 -0.851 -0.834 -0.086 -0.127 -0.061 -0.276 0.917 -5.309 1.773 -10.624 0.025 -0.155 0.155 -0.069 4.116 2.713 6.851 6.273 c 2.707 3.522 2.685 8.39 1.494 12.467 a 0.724 0.724 0 0 1 -1.039 0.434 c -0.901 -0.489 -1.718 -1.854 -2.381 -2.671 -1.448 -1.785 -4.075 -3.315 -5.942 -4.699 z M 144.254 147.652 q -0.262 -0.083 -0.483 -0.337 c -1.285 -1.492 -2.522 -2.729 -3.166 -4.285 -0.818 -1.97 -0.378 -4.282 -1.558 -6.102 -1.122 -1.729 -2.409 -2.738 -3.008 -4.856 -0.448 -1.569 -0.776 -3.166 -1.373 -4.702 -1.26 -3.229 -1.782 -5.762 -0.92 -9.271 a 0.163 0.16 -74 0 1 0.207 -0.116 q 0.467 0.155 0.89 0.494 3.102 2.508 5.95 5.298 c 1.489 1.459 1.912 2.798 2.0 5.017 0.249 6.221 2.934 12.423 1.82 18.644 a 0.279 0.276 13.9 0 1 -0.359 0.215 z M 147.633 121.536 q 0.555 1.486 0.856 2.95 c 0.989 4.796 1.97 9.605 1.903 14.533 q -0.03 2.293 -1.088 4.312 a 0.445 0.442 33.4 0 1 -0.674 0.138 c -0.401 -0.329 -0.525 -0.989 -0.671 -1.365 q -2.55 -6.467 -3.644 -10.539 c -0.727 -2.71 1.884 -7.633 3.185 -10.041 q 0.077 -0.138 0.133 0.011 z" fill="#E05C5C" stroke="#E05C5C" stroke-width="0.3" opacity="0.93"/>
<path d="M 72.669 105.37 c -2.343 -1.398 -3.906 -3.669 -5.199 -6.331 q -1.464 -3.017 -1.785 -3.878 c -0.412 -1.108 9.707 -5.309 10.942 -5.793 q 0.76 -0.298 1.196 -0.199 c 1.196 0.265 1.826 2.751 2.061 3.785 q 1.5 6.599 4.047 15.398 0.215 0.746 -0.243 1.213 c -1.483 1.519 -9.583 -3.337 -11.019 -4.193 z M 81.061 161.135 q -2.517 -2.644 -4.688 -6.086 -0.63 -1.0 -0.804 -2.003 c -0.906 -5.199 -1.594 -10.508 -2.906 -15.622 -0.975 -3.793 -1.309 -6.959 -1.826 -11.445 -0.235 -2.03 -1.566 -3.685 -2.271 -5.18 q -1.362 -2.892 -1.779 -6.32 -0.091 -0.751 0.522 -0.307 c 2.003 1.456 4.519 1.702 7.434 2.088 2.448 0.329 6.467 -0.878 7.994 -2.972 0.923 -1.265 1.298 -1.796 2.448 -2.423 a 0.185 0.182 -26.4 0 1 0.254 0.083 q 2.768 6.022 5.506 12.094 c 0.707 1.572 3.345 4.387 2.975 6.03 -1.008 4.445 -2.729 8.829 -4.486 13.019 -2.685 6.412 -5.141 12.906 -7.514 19.436 q -0.066 0.185 -0.243 0.097 -0.285 -0.144 -0.616 -0.492 z M 81.135 111.804 c -6.591 3.66 -15.003 1.964 -16.699 -6.285 -0.331 -1.605 -0.691 -4.376 0.177 -5.677 1.003 -1.503 1.981 1.155 2.257 1.696 2.13 4.182 8.735 8.055 13.315 8.599 q 0.508 0.058 1.453 0.569 0.11 0.058 0.072 0.177 -0.238 0.732 -0.575 0.92 z M 115.318 109.843 a 0.599 0.591 -3.6 0 1 -0.519 -0.453 q -0.196 -0.82 0.05 -1.644 2.414 -8.064 3.246 -11.959 c 0.478 -2.24 0.848 -4.633 1.917 -6.099 0.53 -0.724 1.182 -0.627 1.986 -0.318 q 5.669 2.182 10.798 5.185 a 0.378 0.376 25.9 0 1 0.16 0.461 c -1.671 4.271 -3.586 8.519 -7.854 10.898 -2.61 1.453 -7.135 4.191 -9.785 3.928 z M 117.594 111.823 q -0.564 -0.318 -0.677 -0.967 -0.025 -0.146 0.113 -0.207 c 1.282 -0.564 2.702 -0.693 4.041 -1.069 3.041 -0.856 6.086 -2.992 8.381 -5.13 q 1.749 -1.627 2.094 -2.467 c 0.282 -0.688 1.047 -2.624 1.934 -2.613 q 0.144 0.003 0.24 0.108 0.749 0.831 0.776 1.989 c 0.091 3.804 -0.619 7.439 -3.663 9.931 -3.834 3.138 -9.149 2.746 -13.24 0.425 z M 120.771 116.017 c 1.685 0.434 3.204 0.273 4.903 0.017 2.309 -0.351 4.097 -0.762 5.895 -2.008 a 0.149 0.146 74.1 0 1 0.232 0.13 q -0.177 3.282 -1.591 6.312 c -0.669 1.436 -1.834 2.994 -2.221 4.605 q -0.282 1.171 -0.395 2.464 -0.453 5.171 -1.751 10.351 c -1.307 5.224 -1.97 10.682 -2.983 15.981 q -0.066 0.343 -0.608 1.188 c -1.262 1.972 -3.376 5.367 -5.343 6.597 a 0.122 0.119 -25.6 0 1 -0.177 -0.061 c -2.282 -6.235 -4.586 -12.461 -7.157 -18.572 -1.843 -4.378 -3.666 -8.878 -4.771 -13.376 q -0.436 -1.771 0.804 -3.318 1.439 -1.798 2.367 -3.906 2.555 -5.801 5.251 -11.503 a 0.13 0.13 0 0 1 0.18 -0.058 q 1.704 0.931 2.627 2.663 c 0.677 1.271 3.376 2.141 4.738 2.494 z" fill="#38C49A" stroke="#38C49A" stroke-width="0.3" opacity="0.93"/>
<path d="M 72.586 173.232 c -0.865 -3.627 -2.019 -13.749 2.008 -16.041 0.663 -0.378 1.326 -0.227 1.851 0.356 1.699 1.878 4.481 5.127 5.185 7.776 a 0.373 0.359 52.6 0 1 -0.03 0.271 c -0.693 1.251 -2.751 2.235 -4.373 3.138 q -1.511 0.845 -3.13 2.906 c -0.34 0.431 -0.718 1.188 -1.243 1.674 a 0.163 0.16 -28.2 0 1 -0.268 -0.08 z M 82.638 167.945 a 0.569 0.564 -74.3 0 1 -0.26 -0.467 c -0.047 -3.033 1.392 -6.79 2.428 -9.641 q 4.312 -11.831 9.945 -23.091 a 0.307 0.304 -62.5 0 1 0.417 -0.133 c 0.345 0.182 0.887 3.586 0.956 4.166 q 1.917 16.367 0.779 32.287 -0.171 2.392 -0.856 5.351 -0.036 0.146 -0.163 0.066 l -13.246 -8.539 z M 101.315 160.704 q 0.171 -1.425 0.0 -2.837 0.061 -8.229 0.843 -16.436 0.304 -3.199 1.08 -6.32 0.086 -0.351 0.122 -0.395 0.298 -0.395 0.519 0.047 6.459 12.975 11.088 26.569 c 0.497 1.459 1.613 4.61 1.21 6.343 a 0.453 0.453 0 0 1 -0.196 0.279 l -13.157 8.486 q -0.309 0.199 -0.37 -0.166 -1.254 -7.735 -1.138 -15.569 z M 118.008 166.66 q -1.489 -0.934 -0.605 -2.5 2.218 -3.928 4.939 -6.801 c 0.964 -1.019 2.497 0.246 3.03 1.102 q 0.807 1.287 1.05 2.801 0.967 6.014 -0.334 11.884 a 0.265 0.265 0 0 1 -0.489 0.077 c -1.912 -3.273 -4.428 -4.575 -7.591 -6.564 z" fill="#E09040" stroke="#E09040" stroke-width="0.3" opacity="0.93"/>
<path d="M 88.691 172.981 q 0.392 0.169 1.135 1.215 0.075 0.108 -0.052 0.144 c -3.997 1.138 -7.218 2.044 -10.533 4.356 q -4.246 2.959 -8.434 5.967 a 0.152 0.149 74.9 0 1 -0.238 -0.138 c 0.329 -3.627 2.859 -9.732 5.652 -12.448 2.525 -2.453 9.666 -0.307 12.47 0.903 z M 78.436 210.721 c -4.68 -4.597 -8.113 -10.403 -8.693 -16.851 -0.569 -6.309 4.318 -9.655 8.89 -12.627 2.265 -1.472 12.848 -7.547 15.019 -4.876 1.635 2.014 3.696 4.376 4.265 6.964 q 0.831 3.765 0.674 7.624 -0.26 6.24 -1.732 12.29 c -0.671 2.751 -0.801 4.74 -0.715 7.39 0.13 4.097 -5.116 4.746 -8.044 3.887 -1.762 -0.517 -3.809 -1.334 -5.898 -1.727 q -2.041 -0.381 -3.765 -2.075 z M 108.823 174.32 q -0.036 -0.008 -0.075 -0.017 -0.033 -0.006 -0.017 -0.036 0.713 -1.16 1.948 -1.635 3.511 -1.345 7.218 -1.605 c 3.572 -0.251 4.724 0.851 6.431 3.608 1.577 2.547 3.68 6.823 3.713 9.961 q 0.003 0.21 -0.169 0.088 -4.599 -3.243 -9.171 -6.494 c -2.771 -1.972 -6.552 -2.923 -9.878 -3.87 z M 110.53 214.533 c -2.564 0.757 -7.39 0.356 -7.972 -3.006 -0.29 -1.666 0.075 -4.11 -0.359 -6.428 q -0.149 -0.812 -0.594 -2.583 c -0.884 -3.539 -1.11 -6.445 -1.403 -9.743 -0.296 -3.323 -0.157 -6.077 0.453 -9.163 q 0.304 -1.547 1.157 -2.876 2.414 -3.751 3.279 -4.583 c 1.37 -1.318 4.376 0.05 5.854 0.583 q 5.442 1.967 11.097 5.92 c 2.649 1.851 5.329 3.953 6.334 6.953 1.329 3.97 -0.18 9.359 -2.05 12.948 q -2.152 4.135 -5.909 7.983 -1.862 1.906 -4.215 2.309 c -1.953 0.334 -3.779 1.127 -5.671 1.685 z" fill="#E060A0" stroke="#E060A0" stroke-width="0.3" opacity="0.93"/>
<path d="M 66.097 204.843 a 0.196 0.193 31.7 0 1 0.329 -0.077 q 0.417 0.448 0.682 1.102 c 1.271 3.152 2.467 6.26 3.058 9.591 0.934 5.287 1.337 10.561 0.862 15.95 q -0.464 5.265 -0.826 10.539 c -0.141 2.086 -0.243 4.34 0.019 6.403 q 0.298 2.359 0.384 4.854 a 0.144 0.144 0 0 1 -0.271 0.069 q -0.285 -0.572 -0.497 -1.276 -1.417 -4.674 -2.003 -9.528 -1.384 -11.45 -1.895 -22.975 -0.301 -6.837 -0.019 -13.677 0.017 -0.439 0.177 -0.975 z M 84.586 218.655 q 0.047 -0.099 0.105 -0.008 c 1.453 2.24 2.746 4.461 3.445 7.083 0.862 3.238 1.622 6.729 1.191 10.011 q -0.138 1.05 -0.986 3.873 c -2.97 9.892 -3.544 20.497 -5.11 30.691 q -0.227 1.492 -0.704 2.914 -0.064 0.188 -0.163 0.019 c -1.304 -2.229 -1.431 -6.931 -1.475 -9.616 -0.193 -12.069 0.53 -24.26 1.762 -36.265 0.39 -3.796 0.55 -5.843 1.936 -8.702 z M 75.914 210.481 q 3.887 3.914 5.552 9.287 c 0.271 0.87 -0.215 2.655 -0.257 3.566 q -0.359 7.633 -0.635 15.268 c -0.152 4.229 -0.425 8.362 -1.414 12.503 q -2.381 9.994 -6.287 18.986 -1.008 2.323 -2.804 4.749 -0.124 0.169 -0.113 -0.039 c 0.03 -0.533 0.227 -1.146 0.273 -1.577 q 0.677 -6.276 1.68 -12.503 c 0.782 -4.878 1.155 -9.931 1.196 -14.467 0.091 -10.064 -0.207 -20.26 0.406 -30.298 0.091 -1.47 0.296 -4.464 1.298 -5.594 q 0.091 -0.099 0.224 -0.124 0.539 -0.102 0.881 0.243 z M 90.751 236.359 a 0.011 0.011 0 0 1 0.022 0.003 q 0.296 2.735 0.599 5.489 0.091 0.84 -0.655 3.917 c -1.058 4.365 -2.251 8.594 -2.459 13.113 -0.273 5.97 -0.859 12.613 -2.74 18.315 q -0.412 1.249 -0.24 -0.055 0.934 -7.006 1.022 -14.362 c 0.014 -1.033 -0.11 -2.851 0.055 -4.304 0.605 -5.304 2.041 -10.566 3.246 -15.76 0.492 -2.11 0.809 -4.202 1.149 -6.356 z M 126.865 261.749 c 0.71 4.102 1.193 8.594 1.718 12.746 q 0.097 0.757 -0.307 0.108 c -4.052 -6.539 -6.448 -14.406 -8.439 -21.912 q -1.403 -5.287 -1.649 -10.787 -0.376 -8.39 -0.674 -16.779 c -0.061 -1.682 -0.707 -4.318 -0.152 -5.959 q 1.622 -4.793 5.238 -8.583 c 2.975 -3.116 2.809 12.859 2.807 13.528 -0.036 11.351 -0.124 20.492 0.528 30.406 0.157 2.417 0.519 4.843 0.931 7.232 z M 113.931 218.652 q 0.075 -0.116 0.135 0.008 c 0.862 1.785 1.337 3.387 1.569 5.478 1.401 12.652 2.224 26.135 2.088 38.884 -0.036 3.26 -0.127 7.243 -1.417 10.243 a 0.122 0.122 0 0 1 -0.229 -0.017 q -0.693 -2.525 -1.019 -5.086 -0.978 -7.635 -2.033 -15.26 c -0.688 -4.972 -1.511 -9.854 -3.064 -14.436 q -1.202 -3.541 -0.575 -7.39 c 0.486 -2.975 0.989 -5.97 2.337 -8.608 q 0.989 -1.931 2.207 -3.818 z M 108.019 236.666 c 0.561 5.171 1.964 10.343 3.169 15.406 0.622 2.613 1.088 5.39 1.091 8.318 q 0.006 8.757 1.127 17.448 0.044 0.348 -0.08 0.019 -0.746 -1.975 -1.157 -4.033 c -1.227 -6.135 -1.577 -11.193 -1.898 -16.914 -0.066 -1.171 -0.329 -2.663 -0.616 -3.845 q -1.088 -4.489 -2.127 -8.992 c -0.577 -2.497 0.022 -5.163 0.442 -7.641 q 0.019 -0.105 0.088 -0.025 0.044 0.052 0.003 0.11 -0.052 0.066 -0.041 0.149 z M 132.213 204.718 a 0.122 0.122 0 0 1 0.199 0.008 c 0.144 0.227 0.249 0.514 0.262 0.804 q 0.202 4.414 0.102 8.831 -0.32 14.627 -2.169 29.141 -0.519 4.072 -1.649 8.022 -0.276 0.972 -0.53 1.367 -0.434 0.682 -0.384 -0.102 c 0.16 -2.608 0.506 -5.296 0.472 -7.779 -0.088 -6.773 -1.365 -13.566 -1.091 -20.097 0.191 -4.569 0.691 -9.257 2.083 -13.641 q 0.826 -2.597 1.826 -5.138 0.204 -0.519 0.878 -1.417 z" fill="#52C07A" stroke="#52C07A" stroke-width="0.3" opacity="0.93"/>
<path d="M 71.461 317.489 c -0.848 -0.616 -1.099 -1.724 -1.448 -3.047 -1.986 -7.497 -2.177 -14.691 -1.843 -22.867 q 0.285 -6.986 2.55 -13.108 c 1.318 -3.561 4.235 -6.843 6.572 -9.945 q 0.227 -0.301 0.204 0.075 c -0.378 6.315 -0.751 12.616 -0.859 18.92 -0.144 8.442 -0.417 16.881 -0.116 25.326 0.066 1.887 -0.765 4.5 -2.785 5.075 q -1.213 0.345 -2.276 -0.428 z M 71.82 321.425 c 1.975 -1.544 4.464 -0.174 4.696 2.273 q 1.191 12.436 1.442 24.934 c 0.044 2.279 -0.221 4.362 -0.605 6.533 q -0.124 0.696 -0.395 1.011 -0.262 0.307 -0.337 -0.091 c -1.39 -7.376 -2.287 -14.776 -3.279 -22.199 q -0.464 -3.459 -0.895 -5.169 -0.564 -2.243 -1.528 -5.039 c -0.285 -0.829 0.221 -1.727 0.901 -2.254 z M 80.025 317.765 c -1.326 -0.721 -1.287 -4.467 -1.204 -5.732 0.646 -10.08 0.95 -20.425 0.287 -30.511 -0.285 -4.296 0.006 -8.699 0.171 -13.0 q 0.008 -0.182 0.069 -0.008 c 0.63 1.782 1.249 3.558 2.041 5.279 1.414 3.077 3.177 6.329 4.097 9.37 q 0.646 2.138 1.097 4.547 1.464 7.854 1.552 15.494 c 0.055 5.061 -2.182 11.05 -6.251 14.307 q -0.945 0.754 -1.859 0.254 z M 80.149 321.649 c 1.934 -0.506 3.895 0.608 3.898 2.749 q 0.017 8.022 -1.552 15.859 c -1.069 5.326 -1.724 10.561 -2.329 15.878 a 0.102 0.102 0 0 1 -0.204 -0.003 q -0.862 -12.011 -0.989 -23.934 -0.041 -3.912 0.21 -7.818 c 0.05 -0.782 0.006 -2.481 0.967 -2.732 z M 124.017 317.489 c -1.674 -1.26 -1.917 -3.149 -1.878 -5.359 0.265 -14.55 -0.135 -29.091 -0.978 -43.619 q -0.011 -0.199 0.113 -0.044 2.199 2.782 4.262 5.646 c 2.517 3.492 3.76 8.006 4.359 12.213 1.37 9.588 1.036 20.149 -1.649 29.42 -0.544 1.884 -2.536 3.019 -4.229 1.743 z M 116.135 316.942 q -4.749 -4.798 -5.547 -11.287 -0.246 -1.994 -0.036 -5.517 0.326 -5.541 1.296 -11.417 c 0.644 -3.895 1.602 -6.967 3.428 -10.666 q 2.262 -4.583 3.964 -9.434 a 0.039 0.036 -37.7 0 1 0.072 0.008 q 0.279 4.34 0.348 8.685 c 0.05 3.207 -0.37 6.881 -0.436 10.064 -0.199 9.586 0.337 17.141 0.569 25.743 0.047 1.746 -0.304 7.21 -3.657 3.82 z M 124.238 320.92 c 1.901 -0.552 3.961 0.892 3.309 3.014 -0.619 2.017 -1.32 3.989 -1.655 6.066 -1.401 8.707 -2.221 17.453 -3.903 26.133 a 0.199 0.196 -61.9 0 1 -0.334 0.102 c -0.039 -0.039 -0.097 -0.108 -0.11 -0.163 q -0.975 -3.751 -0.881 -7.798 0.287 -12.34 1.398 -24.044 c 0.16 -1.685 0.533 -2.831 2.177 -3.309 z M 118.873 321.823 a 0.436 0.434 -84.6 0 1 0.268 0.326 c 0.218 1.221 0.392 2.425 0.434 3.702 0.265 8.058 -0.13 17.309 -0.564 24.925 q -0.215 3.809 -0.384 5.392 a 0.064 0.064 0 0 1 -0.124 0.0 c -0.771 -5.87 -1.494 -11.599 -2.663 -17.412 -0.95 -4.718 -1.185 -9.644 -1.293 -14.448 -0.052 -2.312 2.483 -3.207 4.326 -2.486 z" fill="#8870E8" stroke="#8870E8" stroke-width="0.3" opacity="0.93"/>
</g>
<line x1="390" y1="65" x2="390" y2="445" stroke="#1E2230" stroke-width="1" stroke-dasharray="4 4"/>
<line x1="12" y1="140.6" x2="162" y2="140.6" stroke="#4A9EE8" stroke-width="1.4"/>
<line x1="162" y1="140.6" x2="263.9" y2="140.6" stroke="#4A9EE8" stroke-width="0.9" stroke-dasharray="3 2" opacity="0.8"/>
<circle cx="263.9" cy="140.6" r="3.8" fill="#4A9EE8" stroke="#0E1117" stroke-width="1.3"/>
<line x1="12" y1="176.6" x2="162" y2="176.6" stroke="#A07AE8" stroke-width="1.4"/>
<line x1="162" y1="176.6" x2="247.3" y2="148.9" stroke="#A07AE8" stroke-width="0.9" stroke-dasharray="3 2" opacity="0.8"/>
<circle cx="247.3" cy="148.9" r="3.8" fill="#A07AE8" stroke="#0E1117" stroke-width="1.3"/>
<line x1="12" y1="212.6" x2="162" y2="212.6" stroke="#E8C040" stroke-width="1.4"/>
<line x1="162" y1="212.6" x2="230.8" y2="198.6" stroke="#E8C040" stroke-width="0.9" stroke-dasharray="3 2" opacity="0.8"/>
<circle cx="230.8" cy="198.6" r="3.8" fill="#E8C040" stroke="#0E1117" stroke-width="1.3"/>
<line x1="12" y1="248.6" x2="162" y2="248.6" stroke="#E09040" stroke-width="1.4"/>
<line x1="162" y1="248.6" x2="218.3" y2="231.8" stroke="#E09040" stroke-width="0.9" stroke-dasharray="3 2" opacity="0.8"/>
<circle cx="218.3" cy="231.8" r="3.8" fill="#E09040" stroke="#0E1117" stroke-width="1.3"/>
<line x1="12" y1="358.9" x2="162" y2="358.9" stroke="#8870E8" stroke-width="1.4"/>
<line x1="162" y1="358.9" x2="248.7" y2="358.9" stroke="#8870E8" stroke-width="0.9" stroke-dasharray="3 2" opacity="0.8"/>
<circle cx="248.7" cy="358.9" r="3.8" fill="#8870E8" stroke="#0E1117" stroke-width="1.3"/>
<line x1="378" y1="179.3" x2="467" y2="179.3" stroke="#E05C5C" stroke-width="1.4"/>
<line x1="378" y1="179.3" x2="254.3" y2="179.3" stroke="#E05C5C" stroke-width="0.9" stroke-dasharray="3 2" opacity="0.8"/>
<circle cx="254.3" cy="179.3" r="3.8" fill="#E05C5C" stroke="#0E1117" stroke-width="1.3"/>
<line x1="378" y1="215.3" x2="467" y2="215.3" stroke="#38C49A" stroke-width="1.4"/>
<line x1="378" y1="215.3" x2="265.3" y2="215.2" stroke="#38C49A" stroke-width="0.9" stroke-dasharray="3 2" opacity="0.8"/>
<circle cx="265.3" cy="215.2" r="3.8" fill="#38C49A" stroke="#0E1117" stroke-width="1.3"/>
<line x1="378" y1="323.0" x2="467" y2="323.0" stroke="#52C07A" stroke-width="1.4"/>
<line x1="378" y1="323.0" x2="252.9" y2="323.0" stroke="#52C07A" stroke-width="0.9" stroke-dasharray="3 2" opacity="0.8"/>
<circle cx="252.9" cy="323.0" r="3.8" fill="#52C07A" stroke="#0E1117" stroke-width="1.3"/>
<line x1="483" y1="148.9" x2="402" y2="148.9" stroke="#A07AE8" stroke-width="1.4"/>
<line x1="402" y1="148.9" x2="481.3" y2="148.9" stroke="#A07AE8" stroke-width="0.9" stroke-dasharray="3 2" opacity="0.8"/>
<circle cx="481.3" cy="148.9" r="3.8" fill="#A07AE8" stroke="#0E1117" stroke-width="1.3"/>
<line x1="483" y1="187.6" x2="402" y2="187.6" stroke="#E05C5C" stroke-width="1.4"/>
<line x1="402" y1="187.6" x2="469.4" y2="187.6" stroke="#E05C5C" stroke-width="0.9" stroke-dasharray="3 2" opacity="0.8"/>
<circle cx="469.4" cy="187.6" r="3.8" fill="#E05C5C" stroke="#0E1117" stroke-width="1.3"/>
<line x1="483" y1="287.0" x2="402" y2="287.0" stroke="#52C07A" stroke-width="1.4"/>
<line x1="402" y1="287.0" x2="491.5" y2="287.0" stroke="#52C07A" stroke-width="0.9" stroke-dasharray="3 2" opacity="0.8"/>
<circle cx="491.5" cy="287.0" r="3.8" fill="#52C07A" stroke="#0E1117" stroke-width="1.3"/>
<line x1="483" y1="361.6" x2="402" y2="361.6" stroke="#8870E8" stroke-width="1.4"/>
<line x1="402" y1="361.6" x2="488.7" y2="361.6" stroke="#8870E8" stroke-width="0.9" stroke-dasharray="3 2" opacity="0.8"/>
<circle cx="488.7" cy="361.6" r="3.8" fill="#8870E8" stroke="#0E1117" stroke-width="1.3"/>
<line x1="618" y1="148.9" x2="768" y2="148.9" stroke="#4A9EE8" stroke-width="1.4"/>
<line x1="618" y1="148.9" x2="510.0" y2="148.9" stroke="#4A9EE8" stroke-width="0.9" stroke-dasharray="3 2" opacity="0.8"/>
<circle cx="510.0" cy="148.9" r="3.8" fill="#4A9EE8" stroke="#0E1117" stroke-width="1.3"/>
<line x1="618" y1="184.9" x2="768" y2="184.9" stroke="#38C49A" stroke-width="1.4"/>
<line x1="618" y1="184.9" x2="495.6" y2="182.1" stroke="#38C49A" stroke-width="0.9" stroke-dasharray="3 2" opacity="0.8"/>
<circle cx="495.6" cy="182.1" r="3.8" fill="#38C49A" stroke="#0E1117" stroke-width="1.3"/>
<line x1="618" y1="229.0" x2="768" y2="229.0" stroke="#E09040" stroke-width="1.4"/>
<line x1="618" y1="229.0" x2="503.9" y2="229.0" stroke="#E09040" stroke-width="0.9" stroke-dasharray="3 2" opacity="0.8"/>
<circle cx="503.9" cy="229.0" r="3.8" fill="#E09040" stroke="#0E1117" stroke-width="1.3"/>
<line x1="618" y1="265.0" x2="768" y2="265.0" stroke="#E060A0" stroke-width="1.4"/>
<line x1="618" y1="265.0" x2="498.4" y2="248.4" stroke="#E060A0" stroke-width="0.9" stroke-dasharray="3 2" opacity="0.8"/>
<circle cx="498.4" cy="248.4" r="3.8" fill="#E060A0" stroke="#0E1117" stroke-width="1.3"/>
<text x="10" y="144.6" text-anchor="start" fill="#4A9EE8" font-size="11.5" font-weight="700" font-family="system-ui,sans-serif">Trapezius</text>
<text x="10" y="180.6" text-anchor="start" fill="#A07AE8" font-size="11.5" font-weight="700" font-family="system-ui,sans-serif">Deltoids</text>
<text x="10" y="216.6" text-anchor="start" fill="#E8C040" font-size="11.5" font-weight="700" font-family="system-ui,sans-serif">Biceps</text>
<text x="10" y="252.6" text-anchor="start" fill="#E09040" font-size="11.5" font-weight="700" font-family="system-ui,sans-serif">Forearms</text>
<text x="10" y="362.9" text-anchor="start" fill="#8870E8" font-size="11.5" font-weight="700" font-family="system-ui,sans-serif">Calves</text>
<text x="469" y="183.3" text-anchor="end" fill="#E05C5C" font-size="11.5" font-weight="700" font-family="system-ui,sans-serif">Pectorals</text>
<text x="469" y="219.3" text-anchor="end" fill="#38C49A" font-size="11.5" font-weight="700" font-family="system-ui,sans-serif">Abs</text>
<text x="469" y="327.0" text-anchor="end" fill="#52C07A" font-size="11.5" font-weight="700" font-family="system-ui,sans-serif">Quadriceps</text>
<text x="481" y="152.9" text-anchor="start" fill="#A07AE8" font-size="11.5" font-weight="700" font-family="system-ui,sans-serif">Deltoids</text>
<text x="481" y="191.6" text-anchor="start" fill="#E05C5C" font-size="11.5" font-weight="700" font-family="system-ui,sans-serif">Triceps</text>
<text x="481" y="291.0" text-anchor="start" fill="#52C07A" font-size="11.5" font-weight="700" font-family="system-ui,sans-serif">Hamstrings</text>
<text x="481" y="365.6" text-anchor="start" fill="#8870E8" font-size="11.5" font-weight="700" font-family="system-ui,sans-serif">Calves</text>
<text x="770" y="152.9" text-anchor="end" fill="#4A9EE8" font-size="11.5" font-weight="700" font-family="system-ui,sans-serif">Trapezius</text>
<text x="770" y="188.9" text-anchor="end" fill="#38C49A" font-size="11.5" font-weight="700" font-family="system-ui,sans-serif">Lats / Upper Back</text>
<text x="770" y="233.0" text-anchor="end" fill="#E09040" font-size="11.5" font-weight="700" font-family="system-ui,sans-serif">Lower Back</text>
<text x="770" y="269.0" text-anchor="end" fill="#E060A0" font-size="11.5" font-weight="700" font-family="system-ui,sans-serif">Glutes</text>

</svg>